<?xml version="1.0" encoding="utf-8"?>
<!-- Generator: Adobe Illustrator 16.0.3, SVG Export Plug-In . SVG Version: 6.00 Build 0)  -->
<!DOCTYPE svg PUBLIC "-//W3C//DTD SVG 1.1//EN" "http://www.w3.org/Graphics/SVG/1.1/DTD/svg11.dtd">
<svg version="1.1" xmlns="http://www.w3.org/2000/svg" xmlns:xlink="http://www.w3.org/1999/xlink" x="0px" y="0px"
	 width="1700.79px" height="850.39px" viewBox="0 0 1700.79 850.39" enable-background="new 0 0 1700.79 850.39"
	 xml:space="preserve">
<g id="Capa_2" display="none">
</g>
<g id="Capa_1">
	<rect x="408.802" y="628.656" fill="#1C2531" width="114.609" height="11"/>
	<g>
		<g>
			<g enable-background="new    ">
				<g>
					<polygon fill="#1C2531" points="421.256,535.021 420.733,534.758 471.265,534.758 471.788,535.021 					"/>
				</g>
				<g>
					<polygon fill="#1C2531" points="407.677,545.999 407.153,545.736 407.209,452.695 407.732,452.958 					"/>
				</g>
				<g>
					<polygon fill="#1C2531" points="407.732,452.958 407.209,452.695 420.782,452.695 421.306,452.958 					"/>
				</g>
				<g>
					<polygon fill="#1C2531" points="421.306,452.958 421.256,535.021 471.788,535.021 471.781,545.999 407.677,545.999 
						407.732,452.958 					"/>
				</g>
			</g>
			<g enable-background="new    ">
				<g>
					<polygon fill="#1C2531" points="519.019,535.021 518.496,534.758 581.484,534.758 582.008,535.021 					"/>
				</g>
				<g>
					<polygon fill="#1C2531" points="519.044,492.433 518.521,492.17 575.286,492.17 575.809,492.433 					"/>
				</g>
				<g>
					<polygon fill="#1C2531" points="505.43,545.999 504.907,545.736 504.962,452.695 505.486,452.958 					"/>
				</g>
				<g>
					<polygon fill="#1C2531" points="505.486,452.958 504.962,452.695 579.159,452.695 579.683,452.958 					"/>
				</g>
				<g>
					<polygon fill="#1C2531" points="579.683,452.958 579.676,463.936 519.062,463.936 519.044,492.433 575.809,492.433 
						575.803,503.348 519.038,503.348 519.019,535.021 582.008,535.021 582.001,545.999 505.43,545.999 505.486,452.958 					"/>
				</g>
			</g>
			<g enable-background="new    ">
				<g>
					<polygon fill="#1C2531" points="687.247,545.999 686.724,545.736 674.778,517.555 675.301,517.817 					"/>
				</g>
				<g>
					<polygon fill="#1C2531" points="671.106,507.793 670.583,507.53 659.886,481.759 660.41,482.021 					"/>
				</g>
				<g>
					<polygon fill="#1C2531" points="636.325,507.793 635.801,507.53 670.583,507.53 671.106,507.793 					"/>
				</g>
				<g enable-background="new    ">
					<defs>
						<path id="SVGID_1_" enable-background="new    " d="M660.41,482.021l-0.523-0.263c-3.26-7.818-5.685-14.253-7.265-19.292
							l0.523,0.263C654.725,467.769,657.149,474.203,660.41,482.021z"/>
					</defs>
					<clipPath id="SVGID_2_">
						<use xlink:href="#SVGID_1_"  overflow="visible"/>
					</clipPath>
					<g clip-path="url(#SVGID_2_)" enable-background="new    ">
						<path fill="#1C2531" d="M660.41,482.021l-0.523-0.263c-3.26-7.818-5.685-14.253-7.265-19.292l0.523,0.263
							C654.725,467.769,657.149,474.203,660.41,482.021"/>
					</g>
				</g>
				<g>
					<polygon fill="#1C2531" points="646.152,452.958 645.629,452.695 660.254,452.695 660.778,452.958 					"/>
				</g>
				<g>
					<polygon fill="#1C2531" points="606.691,545.999 606.168,545.736 645.629,452.695 646.152,452.958 					"/>
				</g>
				<g>
					<path fill="#1C2531" d="M660.778,452.958l41.94,93.041h-15.471l-11.946-28.182h-42.904l-11.287,28.182h-14.418l39.461-93.041
						H660.778z M636.325,507.793h34.782l-10.697-25.771c-3.26-7.818-5.685-14.253-7.265-19.292
						c-1.308,5.966-3.155,11.896-5.542,17.771L636.325,507.793"/>
				</g>
			</g>
			<g enable-background="new    ">
				<g>
					<polygon fill="#1C2531" points="798.459,526.005 797.936,525.742 797.98,452.695 798.503,452.958 					"/>
				</g>
				<g>
					<polygon fill="#1C2531" points="798.503,452.958 797.98,452.695 811.004,452.695 811.527,452.958 					"/>
				</g>
				<g>
					<polygon fill="#1C2531" points="797.539,545.999 797.016,545.736 743.164,472.626 743.688,472.889 					"/>
				</g>
				<g>
					<polygon fill="#1C2531" points="730.684,452.958 730.16,452.695 744.084,452.695 744.607,452.958 					"/>
				</g>
				<g>
					<polygon fill="#1C2531" points="730.628,545.999 730.104,545.736 730.16,452.695 730.684,452.958 					"/>
				</g>
				<g>
					<polygon fill="#1C2531" points="811.527,452.958 811.472,545.999 797.539,545.999 743.688,472.889 743.644,545.999 
						730.628,545.999 730.684,452.958 744.607,452.958 798.459,526.005 798.503,452.958 					"/>
				</g>
			</g>
		</g>
	</g>
	<g>
		<g>
			<g enable-background="new    ">
				<g>
					<polygon fill="#426083" points="906.606,535.021 906.083,534.758 971.563,534.758 972.086,535.021 					"/>
				</g>
				<g>
					<polygon fill="#426083" points="906.632,492.433 906.108,492.17 965.113,492.17 965.637,492.433 					"/>
				</g>
				<g>
					<polygon fill="#3D597A" points="892.479,545.999 891.955,545.736 892.011,452.695 892.534,452.958 					"/>
				</g>
				<g>
					<polygon fill="#426083" points="892.534,452.958 892.011,452.695 969.139,452.695 969.662,452.958 					"/>
				</g>
				<g>
					<polygon fill="#4B6E97" points="969.662,452.958 969.656,463.936 906.648,463.936 906.632,492.433 965.637,492.433 
						965.63,503.348 906.625,503.348 906.606,535.021 972.086,535.021 972.08,545.999 892.479,545.999 892.534,452.958 					"/>
				</g>
			</g>
			<g enable-background="new    ">
				<g enable-background="new    ">
					<defs>
						<path id="SVGID_3_" enable-background="new    " d="M1046.364,535.021l-0.523-0.263c7.023,0,12.547-0.575,16.55-1.718
							c4.004-1.143,7.189-2.745,9.574-4.823c3.347-2.916,5.958-6.839,7.823-11.77l0.523,0.263
							c-1.865,4.931-4.476,8.854-7.823,11.769c-2.385,2.079-5.57,3.682-9.573,4.823
							C1058.911,534.445,1053.389,535.021,1046.364,535.021z"/>
					</defs>
					<clipPath id="SVGID_4_">
						<use xlink:href="#SVGID_3_"  overflow="visible"/>
					</clipPath>
					<g clip-path="url(#SVGID_4_)" enable-background="new    ">
						<path fill="#426083" d="M1046.364,535.021l-0.523-0.263c0.819,0,1.618-0.008,2.397-0.023l0.523,0.263
							C1047.983,535.013,1047.184,535.021,1046.364,535.021"/>
						<path fill="#416083" d="M1048.762,534.997l-0.523-0.263c2.623-0.053,5.014-0.194,7.172-0.424l0.523,0.263
							C1053.775,534.803,1051.385,534.944,1048.762,534.997"/>
						<path fill="#415F82" d="M1055.934,534.573l-0.523-0.263c1.324-0.141,2.561-0.315,3.709-0.522l0.523,0.263
							C1058.494,534.258,1057.258,534.433,1055.934,534.573"/>
						<path fill="#415F82" d="M1059.643,534.051l-0.523-0.263c0.813-0.147,1.581-0.311,2.306-0.491l0.523,0.263
							C1061.224,533.74,1060.455,533.903,1059.643,534.051"/>
						<path fill="#415E81" d="M1061.948,533.56l-0.523-0.263c0.331-0.082,0.653-0.168,0.966-0.257
							c0.321-0.092,0.637-0.187,0.947-0.284l0.523,0.263c-0.311,0.098-0.626,0.192-0.946,0.283
							C1062.602,533.392,1062.279,533.478,1061.948,533.56"/>
						<path fill="#405E81" d="M1063.861,533.019l-0.523-0.263c0.626-0.196,1.23-0.404,1.813-0.625l0.523,0.262
							C1065.092,532.613,1064.487,532.822,1063.861,533.019"/>
						<path fill="#405E80" d="M1065.675,532.393l-0.523-0.262c0.511-0.194,1.006-0.396,1.484-0.609l0.523,0.263
							C1066.681,531.997,1066.186,532.199,1065.675,532.393"/>
						<path fill="#405D80" d="M1067.159,531.784l-0.523-0.263c0.433-0.191,0.852-0.391,1.257-0.598l0.523,0.263
							C1068.011,531.394,1067.592,531.593,1067.159,531.784"/>
						<path fill="#405D7F" d="M1068.416,531.187l-0.523-0.263c0.375-0.19,0.738-0.388,1.09-0.592l0.523,0.263
							C1069.154,530.799,1068.791,530.996,1068.416,531.187"/>
						<path fill="#3F5C7F" d="M1069.506,530.595l-0.523-0.263c0.332-0.192,0.654-0.391,0.966-0.595l0.523,0.263
							C1070.16,530.204,1069.838,530.402,1069.506,530.595"/>
						<path fill="#3F5C7E" d="M1070.472,530l-0.523-0.263c0.3-0.196,0.591-0.397,0.872-0.604l0.523,0.262
							C1071.063,529.602,1070.771,529.804,1070.472,530"/>
						<path fill="#3F5C7E" d="M1071.344,529.395l-0.523-0.262c0.275-0.203,0.543-0.411,0.801-0.625l0.523,0.263
							C1071.887,528.983,1071.619,529.191,1071.344,529.395"/>
						<path fill="#3E5B7D" d="M1072.145,528.771l-0.523-0.263c0.116-0.096,0.23-0.193,0.344-0.291
							c0.199-0.174,0.396-0.352,0.59-0.532l0.523,0.263c-0.194,0.181-0.391,0.358-0.59,0.531
							C1072.375,528.577,1072.261,528.674,1072.145,528.771"/>
						<path fill="#3E5B7D" d="M1073.078,527.947l-0.523-0.263c0.372-0.346,0.734-0.705,1.087-1.078l0.523,0.263
							C1073.813,527.241,1073.45,527.601,1073.078,527.947"/>
						<path fill="#3E5B7C" d="M1074.165,526.869l-0.523-0.263c0.395-0.417,0.777-0.85,1.147-1.3l0.523,0.263
							C1074.942,526.019,1074.56,526.452,1074.165,526.869"/>
						<path fill="#3E5A7B" d="M1075.313,525.569l-0.523-0.263c0.443-0.537,0.869-1.099,1.277-1.684l0.523,0.263
							C1076.182,524.471,1075.756,525.031,1075.313,525.569"/>
						<path fill="#3D5A7B" d="M1076.59,523.886l-0.523-0.263c0.55-0.785,1.068-1.614,1.555-2.484l0.523,0.262
							C1077.658,522.271,1077.14,523.1,1076.59,523.886"/>
						<path fill="#3D597A" d="M1078.145,521.4l-0.523-0.262c0.809-1.447,1.531-3.011,2.167-4.691l0.523,0.263
							C1079.676,518.391,1078.953,519.954,1078.145,521.4"/>
					</g>
				</g>
				<g enable-background="new    ">
					<defs>
						<path id="SVGID_5_" enable-background="new    " d="M1066.838,466.856c0.175,0.088,0.35,0.176,0.525,0.264
							c3.93,1.971,7.359,5.045,10.283,9.224c3.657,5.228,5.487,12.705,5.482,22.433c-0.005,7.027-0.943,13.003-2.817,17.934
							l-0.523-0.263c1.874-4.931,2.813-10.906,2.816-17.934c0.006-9.727-1.824-17.205-5.481-22.433
							C1074.199,471.902,1070.769,468.827,1066.838,466.856z"/>
					</defs>
					<clipPath id="SVGID_6_">
						<use xlink:href="#SVGID_5_"  overflow="visible"/>
					</clipPath>
					<g clip-path="url(#SVGID_6_)" enable-background="new    ">
						<path fill="#3D597A" d="M1080.312,516.71l-0.523-0.263c1.874-4.931,2.813-10.906,2.816-17.934
							c0.006-9.727-1.824-17.205-5.481-22.433c-2.924-4.179-6.354-7.254-10.285-9.225l0.523,0.263
							c3.931,1.971,7.361,5.046,10.285,9.225c3.657,5.228,5.487,12.705,5.482,22.433
							C1083.124,505.804,1082.186,511.779,1080.312,516.71"/>
					</g>
				</g>
				<g>
					<polygon fill="#426083" points="1023.59,535.021 1023.066,534.758 1045.841,534.758 1046.364,535.021 					"/>
				</g>
				<g enable-background="new    ">
					<defs>
						<path id="SVGID_7_" enable-background="new    " d="M1075.3,457.58c0.175,0.088,0.35,0.176,0.524,0.263
							c-3.161-1.585-6.685-2.77-10.568-3.553c-4.371-0.883-10.694-1.332-18.996-1.332l-0.523-0.263
							c8.302,0,14.625,0.449,18.996,1.332C1068.616,454.811,1072.14,455.995,1075.3,457.58z"/>
					</defs>
					<clipPath id="SVGID_8_">
						<use xlink:href="#SVGID_7_"  overflow="visible"/>
					</clipPath>
					<g clip-path="url(#SVGID_8_)" enable-background="new    ">
						<path fill="#426083" d="M1046.26,452.958l-0.523-0.263c5.323,0,9.834,0.185,13.537,0.55l0.523,0.263
							C1056.094,453.143,1051.584,452.958,1046.26,452.958"/>
						<path fill="#426084" d="M1059.797,453.508l-0.523-0.263c2.071,0.204,3.891,0.466,5.459,0.782
							c3.727,0.752,7.122,1.873,10.184,3.363l0.523,0.263c-3.062-1.49-6.457-2.611-10.184-3.363
							C1063.688,453.973,1061.868,453.712,1059.797,453.508"/>
						<path fill="#426083" d="M1075.439,457.653l-0.523-0.263c0.129,0.063,0.257,0.126,0.385,0.189l0.523,0.263
							C1075.696,457.779,1075.568,457.716,1075.439,457.653"/>
					</g>
				</g>
				<g>
					<polygon fill="#426083" points="1009.518,452.958 1008.994,452.695 1045.736,452.695 1046.26,452.958 					"/>
				</g>
				<g>
					<polygon fill="#3D597A" points="1009.462,545.999 1008.938,545.736 1008.994,452.695 1009.518,452.958 					"/>
				</g>
				<g>
					<path fill="#4B6E97" d="M1093.512,476.856c2.785,6.452,4.176,13.821,4.17,22.118c-0.004,7.063-0.952,13.326-2.854,18.779
						c-1.893,5.462-4.323,9.979-7.284,13.551c-2.962,3.572-6.202,6.39-9.72,8.44c-3.519,2.052-7.765,3.607-12.73,4.661
						c-4.975,1.062-10.687,1.593-17.136,1.593h-38.496l0.056-93.041h36.742c8.302,0,14.625,0.449,18.996,1.332
						c6.106,1.231,11.322,3.455,15.638,6.667C1086.521,465.104,1090.719,470.404,1093.512,476.856z M1080.312,516.71
						c1.874-4.931,2.813-10.906,2.817-17.934c0.005-9.728-1.825-17.205-5.482-22.433c-3.658-5.229-8.108-8.729-13.342-10.501
						c-3.786-1.269-9.875-1.907-18.267-1.907h-22.406l-0.042,71.085h22.774c7.024,0,12.547-0.575,16.551-1.719
						c4.003-1.142,7.188-2.744,9.573-4.823C1075.836,525.563,1078.446,521.641,1080.312,516.71"/>
				</g>
			</g>
			<g enable-background="new    ">
				<g>
					<polygon fill="#3D597A" points="1216.25,526.833 1215.727,526.57 1215.737,509.24 1216.261,509.502 					"/>
				</g>
				<g enable-background="new    ">
					<defs>
						<path id="SVGID_9_" enable-background="new    " d="M1202.546,465.572c0.173,0.087,0.347,0.174,0.52,0.261
							c2.777,1.393,5.022,3.066,6.742,5.021c2.372,2.709,4.358,6.435,5.956,11.167l-0.523-0.263
							c-1.598-4.732-3.584-8.458-5.956-11.167C1207.565,468.638,1205.321,466.965,1202.546,465.572z"/>
					</defs>
					<clipPath id="SVGID_10_">
						<use xlink:href="#SVGID_9_"  overflow="visible"/>
					</clipPath>
					<g clip-path="url(#SVGID_10_)" enable-background="new    ">
						<path fill="#3D597A" d="M1215.764,482.021l-0.523-0.263c-1.598-4.732-3.584-8.458-5.956-11.167
							c-1.72-1.955-3.965-3.629-6.742-5.021l0.523,0.263c2.777,1.393,5.022,3.066,6.742,5.021
							C1212.18,473.563,1214.166,477.289,1215.764,482.021"/>
					</g>
				</g>
				<g>
					<polygon fill="#3D597A" points="1184.896,509.502 1184.372,509.24 1184.379,498.325 1184.902,498.588 					"/>
				</g>
				<g>
					<polygon fill="#426083" points="1184.902,498.588 1184.379,498.325 1229.567,498.262 1230.091,498.524 					"/>
				</g>
				<g enable-background="new    ">
					<defs>
						<path id="SVGID_11_" enable-background="new    " d="M1163.338,531.561l-0.523-0.263c0.594,0.298,1.204,0.582,1.828,0.852
							c6.25,2.708,12.896,4.067,19.93,4.067c6.116,0,12.081-1.026,17.9-3.077c5.821-2.053,10.239-4.247,13.254-6.569l0.523,0.263
							c-3.015,2.321-7.433,4.517-13.254,6.568c-5.819,2.052-11.784,3.078-17.9,3.078c-7.033,0-13.68-1.359-19.93-4.067
							C1164.542,532.143,1163.932,531.858,1163.338,531.561z"/>
					</defs>
					<clipPath id="SVGID_12_">
						<use xlink:href="#SVGID_11_"  overflow="visible"/>
					</clipPath>
					<g clip-path="url(#SVGID_12_)" enable-background="new    ">
						<path fill="#426083" d="M1163.338,531.561l-0.523-0.263c0.123,0.063,0.248,0.124,0.373,0.185l0.523,0.263
							C1163.586,531.684,1163.461,531.623,1163.338,531.561"/>
						<path fill="#426084" d="M1163.711,531.745l-0.523-0.263c0.477,0.231,0.961,0.453,1.455,0.667
							c4.697,2.035,9.617,3.309,14.758,3.815l0.523,0.263c-5.141-0.507-10.061-1.78-14.758-3.815
							C1164.672,532.198,1164.188,531.977,1163.711,531.745"/>
						<path fill="#426083" d="M1179.924,536.228l-0.523-0.263c1.7,0.168,3.424,0.252,5.172,0.252c0.365,0,0.729-0.004,1.094-0.011
							l0.523,0.263c-0.364,0.007-0.729,0.011-1.094,0.011C1183.348,536.479,1181.624,536.396,1179.924,536.228"/>
						<path fill="#416083" d="M1186.189,536.469l-0.523-0.263c1.542-0.031,3.074-0.128,4.598-0.29l0.523,0.263
							C1189.264,536.341,1187.731,536.438,1186.189,536.469"/>
						<path fill="#415F82" d="M1190.787,536.179l-0.523-0.263c1.277-0.136,2.548-0.318,3.813-0.547l0.523,0.263
							C1193.335,535.86,1192.064,536.043,1190.787,536.179"/>
						<path fill="#415F82" d="M1194.6,535.632l-0.523-0.263c1.14-0.206,2.274-0.449,3.403-0.73l0.523,0.263
							C1196.874,535.183,1195.739,535.426,1194.6,535.632"/>
						<path fill="#415E81" d="M1198.003,534.901l-0.523-0.263c1.062-0.264,2.119-0.562,3.171-0.892l0.523,0.262
							C1200.122,534.34,1199.064,534.637,1198.003,534.901"/>
						<path fill="#405E81" d="M1201.174,534.009l-0.523-0.262c0.609-0.191,1.217-0.395,1.822-0.607
							c0.651-0.229,1.284-0.461,1.9-0.694l0.523,0.263c-0.616,0.233-1.249,0.464-1.9,0.693
							C1202.391,533.615,1201.783,533.817,1201.174,534.009"/>
						<path fill="#405E80" d="M1204.896,532.708l-0.523-0.263c1.292-0.488,2.507-0.985,3.645-1.49l0.523,0.263
							C1207.403,531.723,1206.188,532.219,1204.896,532.708"/>
						<path fill="#405D80" d="M1208.541,531.218l-0.523-0.263c0.92-0.407,1.789-0.82,2.607-1.237l0.523,0.263
							C1210.33,530.397,1209.461,530.811,1208.541,531.218"/>
						<path fill="#405D7F" d="M1211.148,529.98l-0.523-0.263c0.688-0.351,1.341-0.705,1.958-1.063l0.523,0.263
							C1212.489,529.275,1211.837,529.63,1211.148,529.98"/>
						<path fill="#3F5C7F" d="M1213.106,528.918l-0.523-0.263c0.532-0.309,1.037-0.619,1.517-0.933l0.523,0.263
							C1214.144,528.299,1213.639,528.609,1213.106,528.918"/>
						<path fill="#3F5C7E" d="M1214.623,527.985l-0.523-0.263c0.426-0.278,0.83-0.56,1.215-0.842l0.523,0.263
							C1215.453,527.426,1215.049,527.706,1214.623,527.985"/>
						<path fill="#3F5C7E" d="M1215.838,527.144l-0.523-0.263c0.14-0.104,0.277-0.207,0.412-0.311l0.523,0.263
							C1216.115,526.937,1215.978,527.04,1215.838,527.144"/>
					</g>
				</g>
				<g enable-background="new    ">
					<defs>
						<path id="SVGID_13_" enable-background="new    " d="M1210.626,456.636c0.175,0.088,0.35,0.175,0.524,0.263
							c-1.664-0.834-3.455-1.588-5.372-2.258c-6.232-2.178-13.211-3.267-20.919-3.267l-0.523-0.263
							c7.708,0,14.687,1.089,20.919,3.267C1207.172,455.049,1208.963,455.801,1210.626,456.636z"/>
					</defs>
					<clipPath id="SVGID_14_">
						<use xlink:href="#SVGID_13_"  overflow="visible"/>
					</clipPath>
					<g clip-path="url(#SVGID_14_)" enable-background="new    ">
						<path fill="#426083" d="M1184.859,451.374l-0.523-0.263c2.527,0,4.976,0.117,7.345,0.352l0.523,0.263
							C1189.835,451.491,1187.387,451.374,1184.859,451.374"/>
						<path fill="#426084" d="M1192.204,451.726l-0.523-0.263c4.858,0.479,9.385,1.451,13.574,2.915
							c1.751,0.612,3.397,1.294,4.938,2.043l0.523,0.263c-1.54-0.749-3.186-1.431-4.938-2.043
							C1201.589,453.177,1197.063,452.205,1192.204,451.726"/>
						<path fill="#426083" d="M1210.716,456.684l-0.523-0.263c0.146,0.071,0.291,0.143,0.435,0.215l0.523,0.263
							C1211.007,456.826,1210.861,456.755,1210.716,456.684"/>
					</g>
				</g>
				<g enable-background="new    ">
					<defs>
						<path id="SVGID_15_" enable-background="new    " d="M1155.629,540.898l-0.523-0.263c-7.717-3.87-13.604-9.257-17.676-16.162
							c-4.358-7.405-6.539-15.675-6.533-24.817c0.006-9.052,2.187-17.501,6.527-25.348c4.35-7.847,10.594-13.678,18.746-17.483
							c8.151-3.815,17.543-5.714,28.166-5.714l0.523,0.263c-10.623,0-20.015,1.898-28.166,5.714
							c-8.152,3.806-14.396,9.637-18.746,17.482c-4.34,7.848-6.521,16.297-6.527,25.349c-0.006,9.142,2.175,17.412,6.533,24.817
							C1142.024,531.641,1147.912,537.028,1155.629,540.898z"/>
					</defs>
					<clipPath id="SVGID_16_">
						<use xlink:href="#SVGID_15_"  overflow="visible"/>
					</clipPath>
					<g clip-path="url(#SVGID_16_)" enable-background="new    ">
						<path fill="#3D597A" d="M1155.629,540.898l-0.523-0.263c-7.717-3.87-13.604-9.257-17.676-16.162
							c-4.358-7.405-6.539-15.675-6.533-24.817c0.006-9.052,2.187-17.501,6.527-25.348c0.026-0.048,0.053-0.096,0.079-0.143
							l0.523,0.262c-0.026,0.048-0.053,0.096-0.079,0.143c-4.34,7.848-6.521,16.297-6.527,25.349
							c-0.006,9.142,2.175,17.412,6.533,24.817C1142.024,531.641,1147.912,537.028,1155.629,540.898"/>
						<path fill="#3D5A7B" d="M1138.026,474.428l-0.523-0.262c0.722-1.291,1.495-2.527,2.319-3.708l0.523,0.263
							C1139.521,471.901,1138.748,473.137,1138.026,474.428"/>
						<path fill="#3E5A7B" d="M1140.346,470.721l-0.523-0.263c0.631-0.902,1.291-1.773,1.982-2.611l0.523,0.263
							C1141.637,468.947,1140.977,469.817,1140.346,470.721"/>
						<path fill="#3E5B7C" d="M1142.328,468.109l-0.523-0.263c0.587-0.713,1.195-1.402,1.826-2.068l0.524,0.263
							C1143.524,466.707,1142.915,467.396,1142.328,468.109"/>
						<path fill="#3E5B7D" d="M1144.155,466.041l-0.524-0.263c0.571-0.603,1.16-1.187,1.767-1.752l0.524,0.263
							C1145.314,464.854,1144.726,465.438,1144.155,466.041"/>
						<path fill="#3E5B7D" d="M1145.922,464.289l-0.524-0.263c0.568-0.529,1.153-1.042,1.753-1.537l0.523,0.263
							C1147.074,463.247,1146.49,463.76,1145.922,464.289"/>
						<path fill="#3F5C7E" d="M1147.674,462.752l-0.523-0.263c0.578-0.479,1.171-0.941,1.779-1.388l0.523,0.262
							C1148.845,461.811,1148.252,462.273,1147.674,462.752"/>
						<path fill="#3F5C7E" d="M1149.453,461.363l-0.523-0.262c0.599-0.441,1.211-0.866,1.838-1.277l0.523,0.263
							C1150.664,460.498,1150.052,460.923,1149.453,461.363"/>
						<path fill="#3F5C7F" d="M1151.291,460.087l-0.523-0.263c0.629-0.411,1.272-0.808,1.93-1.188l0.523,0.263
							C1152.563,459.279,1151.92,459.676,1151.291,460.087"/>
						<path fill="#405D7F" d="M1153.221,458.898l-0.523-0.263c0.673-0.39,1.359-0.764,2.062-1.122l0.523,0.263
							C1154.58,458.135,1153.894,458.509,1153.221,458.898"/>
						<path fill="#405D80" d="M1155.282,457.776l-0.523-0.263c0.464-0.236,0.935-0.466,1.411-0.688
							c0.334-0.156,0.671-0.31,1.01-0.46l0.523,0.263c-0.339,0.15-0.676,0.304-1.01,0.46
							C1156.217,457.311,1155.746,457.54,1155.282,457.776"/>
						<path fill="#405E80" d="M1157.703,456.628l-0.523-0.263c0.925-0.41,1.866-0.796,2.823-1.158l0.523,0.263
							C1159.569,455.832,1158.628,456.218,1157.703,456.628"/>
						<path fill="#405E81" d="M1160.526,455.47l-0.523-0.263c1.018-0.385,2.053-0.743,3.106-1.074l0.523,0.263
							C1162.58,454.727,1161.544,455.084,1160.526,455.47"/>
						<path fill="#415E81" d="M1163.633,454.396l-0.523-0.263c1.145-0.359,2.309-0.687,3.495-0.981l0.523,0.263
							C1165.941,453.709,1164.777,454.036,1163.633,454.396"/>
						<path fill="#415F82" d="M1167.128,453.414l-0.523-0.263c1.338-0.333,2.702-0.625,4.093-0.876l0.523,0.262
							C1169.83,452.789,1168.466,453.081,1167.128,453.414"/>
						<path fill="#415F82" d="M1171.221,452.537l-0.523-0.262c1.649-0.299,3.336-0.539,5.06-0.723l0.523,0.263
							C1174.557,451.999,1172.87,452.239,1171.221,452.537"/>
						<path fill="#416083" d="M1176.28,451.815l-0.523-0.263c2.212-0.235,4.486-0.377,6.821-0.424l0.523,0.263
							C1180.767,451.438,1178.493,451.58,1176.28,451.815"/>
						<path fill="#426083" d="M1183.102,451.392l-0.523-0.263c0.582-0.012,1.168-0.018,1.758-0.018l0.523,0.263
							C1184.27,451.374,1183.684,451.38,1183.102,451.392"/>
					</g>
				</g>
				<g>
					<path fill="#4B6E97" d="M1184.859,451.374c7.708,0,14.687,1.089,20.919,3.267c6.223,2.177,11.114,5.219,14.655,9.106
						c3.533,3.896,6.229,8.971,8.068,15.233l-12.738,3.041c-1.598-4.732-3.584-8.458-5.956-11.167
						c-2.382-2.708-5.772-4.877-10.188-6.505c-4.415-1.629-9.308-2.439-14.696-2.439c-6.449,0-12.035,0.855-16.74,2.565
						c-4.705,1.718-8.502,3.968-11.391,6.757c-2.89,2.799-5.13,5.867-6.734,9.205c-2.719,5.759-4.081,11.995-4.086,18.726
						c-0.004,8.288,1.629,15.225,4.899,20.813s8.036,9.736,14.294,12.437c6.25,2.708,12.896,4.067,19.93,4.067
						c6.116,0,12.081-1.026,17.9-3.078c5.821-2.052,10.239-4.247,13.254-6.568l0.011-17.331h-31.365l0.007-10.914l45.188-0.063
						l-0.021,34.526c-6.946,4.823-14.1,8.449-21.477,10.888c-7.377,2.43-14.941,3.645-22.704,3.645
						c-10.479,0-19.993-1.953-28.555-5.867c-8.561-3.914-15.015-9.574-19.382-16.979c-4.358-7.405-6.539-15.676-6.533-24.817
						c0.006-9.052,2.188-17.501,6.527-25.349c4.35-7.846,10.594-13.677,18.746-17.482
						C1164.845,453.272,1174.236,451.374,1184.859,451.374z"/>
				</g>
			</g>
			<g enable-background="new    ">
				<g>
					<polygon fill="#426083" points="1283.164,535.021 1282.641,534.758 1348.122,534.758 1348.646,535.021 					"/>
				</g>
				<g>
					<polygon fill="#426083" points="1283.189,492.433 1282.666,492.17 1341.672,492.17 1342.195,492.433 					"/>
				</g>
				<g>
					<polygon fill="#3D597A" points="1269.046,545.999 1268.522,545.736 1268.578,452.695 1269.102,452.958 					"/>
				</g>
				<g>
					<polygon fill="#426083" points="1269.102,452.958 1268.578,452.695 1345.698,452.695 1346.222,452.958 					"/>
				</g>
				<g>
					<polygon fill="#4B6E97" points="1346.222,452.958 1346.215,463.936 1283.207,463.936 1283.189,492.433 1342.195,492.433 
						1342.188,503.348 1283.184,503.348 1283.164,535.021 1348.646,535.021 1348.639,545.999 1269.046,545.999 1269.102,452.958 
											"/>
				</g>
			</g>
		</g>
	</g>
	<g>
		<g>
			<g enable-background="new    ">
				<g>
					<polygon fill="#1C2531" points="619.197,638.824 618.674,638.562 626.669,640.334 627.192,640.596 					"/>
				</g>
				<g enable-background="new    ">
					<defs>
						<path id="SVGID_17_" enable-background="new    " d="M591.61,649.998l-0.523-0.263c3.054,1.531,6.35,2.305,9.896,2.305
							c4.479,0,8.267-1.134,11.38-3.4c3.105-2.26,5.211-5.624,6.312-10.078l0.523,0.263c-1.1,4.454-3.207,7.818-6.312,10.078
							c-3.113,2.267-6.9,3.4-11.38,3.4C597.96,652.303,594.665,651.529,591.61,649.998z"/>
					</defs>
					<clipPath id="SVGID_18_">
						<use xlink:href="#SVGID_17_"  overflow="visible"/>
					</clipPath>
					<g clip-path="url(#SVGID_18_)" enable-background="new    ">
						<path fill="#1C2531" d="M591.61,649.998l-0.523-0.263c0.079,0.039,0.157,0.078,0.236,0.116l0.523,0.263
							C591.768,650.076,591.689,650.037,591.61,649.998"/>
						<path fill="#1C2531" d="M591.847,650.114l-0.523-0.263c2.313,1.126,4.763,1.82,7.354,2.076l0.523,0.263
							C596.609,651.935,594.159,651.24,591.847,650.114"/>
						<path fill="#1C2531" d="M599.201,652.19l-0.523-0.263c0.756,0.075,1.525,0.112,2.305,0.112c0.174,0,0.348-0.002,0.52-0.005
							l0.523,0.263c-0.172,0.003-0.345,0.005-0.52,0.005C600.726,652.303,599.957,652.266,599.201,652.19"/>
						<path fill="#1C2531" d="M602.025,652.298l-0.523-0.263c0.703-0.014,1.388-0.057,2.056-0.128l0.523,0.263
							C603.413,652.241,602.728,652.283,602.025,652.298"/>
						<path fill="#1C2531" d="M604.081,652.17l-0.524-0.263c0.521-0.056,1.03-0.128,1.529-0.218l0.523,0.262
							C605.111,652.042,604.601,652.114,604.081,652.17"/>
						<path fill="#1C2531" d="M605.61,651.951l-0.523-0.262c0.426-0.077,0.844-0.167,1.255-0.269l0.523,0.262
							C606.455,651.785,606.036,651.875,605.61,651.951"/>
						<path fill="#1C2531" d="M606.865,651.683l-0.523-0.262c0.367-0.092,0.728-0.192,1.083-0.304l0.523,0.262
							C607.593,651.49,607.232,651.592,606.865,651.683"/>
						<path fill="#1C2531" d="M607.948,651.379l-0.523-0.262c0.328-0.104,0.65-0.215,0.967-0.335l0.523,0.263
							C608.598,651.165,608.275,651.276,607.948,651.379"/>
						<path fill="#1C2531" d="M608.915,651.045l-0.523-0.263c0.3-0.113,0.596-0.234,0.886-0.363l0.523,0.263
							C609.511,650.81,609.215,650.932,608.915,651.045"/>
						<path fill="#1C2531" d="M609.801,650.682l-0.523-0.263c0.281-0.125,0.558-0.257,0.831-0.396l0.523,0.263
							C610.359,650.425,610.083,650.557,609.801,650.682"/>
						<path fill="#1C2531" d="M610.632,650.286l-0.523-0.263c0.268-0.137,0.532-0.281,0.792-0.432l0.523,0.263
							C611.164,650.005,610.9,650.149,610.632,650.286"/>
						<path fill="#1C2531" d="M611.424,649.854l-0.523-0.263c0.261-0.151,0.518-0.31,0.77-0.475l0.523,0.263
							C611.942,649.545,611.685,649.703,611.424,649.854"/>
						<path fill="#1C2531" d="M612.194,649.38l-0.523-0.263c0.234-0.153,0.465-0.313,0.691-0.478
							c0.021-0.016,0.042-0.031,0.064-0.047l0.523,0.263c-0.021,0.016-0.042,0.031-0.064,0.047
							C612.659,649.067,612.429,649.227,612.194,649.38"/>
						<path fill="#1C2531" d="M612.95,648.855l-0.523-0.263c0.225-0.166,0.445-0.337,0.66-0.515l0.523,0.263
							C613.395,648.518,613.175,648.689,612.95,648.855"/>
						<path fill="#1C2531" d="M613.609,648.341l-0.523-0.263c0.223-0.185,0.44-0.375,0.651-0.571l0.523,0.263
							C614.049,647.966,613.832,648.156,613.609,648.341"/>
						<path fill="#1C2531" d="M614.261,647.77l-0.523-0.263c0.226-0.211,0.446-0.429,0.659-0.654l0.523,0.263
							C614.707,647.34,614.487,647.559,614.261,647.77"/>
						<path fill="#1C2531" d="M614.92,647.115l-0.523-0.263c0.236-0.25,0.465-0.508,0.685-0.775l0.523,0.263
							C615.385,646.606,615.156,646.865,614.92,647.115"/>
						<path fill="#1C2531" d="M615.605,646.34l-0.523-0.263c0.258-0.313,0.505-0.64,0.742-0.978l0.523,0.262
							C616.11,645.7,615.863,646.025,615.605,646.34"/>
						<path fill="#1C2531" d="M616.347,645.361l-0.523-0.262c0.312-0.446,0.604-0.914,0.876-1.402l0.523,0.262
							C616.95,644.448,616.658,644.915,616.347,645.361"/>
						<path fill="#1C2531" d="M617.223,643.959l-0.523-0.262c0.843-1.51,1.501-3.223,1.974-5.136l0.523,0.263
							C618.725,640.737,618.066,642.449,617.223,643.959"/>
					</g>
				</g>
				<g enable-background="new    ">
					<defs>
						<path id="SVGID_19_" enable-background="new    " d="M610.249,611.073l0.523,0.263c0.498,0.25,0.976,0.525,1.434,0.826
							c2.662,1.764,4.692,4.57,6.093,8.422l-0.523-0.262c-1.401-3.853-3.432-6.659-6.093-8.423
							C611.225,611.599,610.747,611.323,610.249,611.073z"/>
					</defs>
					<clipPath id="SVGID_20_">
						<use xlink:href="#SVGID_19_"  overflow="visible"/>
					</clipPath>
					<g clip-path="url(#SVGID_20_)" enable-background="new    ">
						<path fill="#1C2531" d="M618.3,620.584l-0.523-0.262c-1.401-3.853-3.432-6.659-6.093-8.423
							c-0.458-0.301-0.936-0.576-1.434-0.826l0.523,0.263c0.498,0.25,0.976,0.525,1.434,0.826
							C614.868,613.926,616.899,616.732,618.3,620.584"/>
					</g>
				</g>
				<g enable-background="new    ">
					<defs>
						<path id="SVGID_21_" enable-background="new    " d="M614.85,606.05c0.175,0.088,0.349,0.176,0.524,0.263
							c-3.693-1.852-8.043-2.779-13.056-2.779l-0.523-0.263C606.807,603.271,611.157,604.198,614.85,606.05z"/>
					</defs>
					<clipPath id="SVGID_22_">
						<use xlink:href="#SVGID_21_"  overflow="visible"/>
					</clipPath>
					<g clip-path="url(#SVGID_22_)" enable-background="new    ">
						<path fill="#1C2531" d="M602.318,603.533l-0.523-0.263c1.25,0,2.459,0.058,3.626,0.173l0.523,0.263
							C604.777,603.591,603.568,603.533,602.318,603.533"/>
						<path fill="#1C2531" d="M605.944,603.706l-0.523-0.263c3.411,0.337,6.47,1.166,9.181,2.484l0.524,0.263
							C612.415,604.872,609.355,604.043,605.944,603.706"/>
						<path fill="#1C2531" d="M615.125,606.19l-0.524-0.263c0.083,0.04,0.166,0.081,0.249,0.123l0.524,0.262
							C615.291,606.271,615.208,606.23,615.125,606.19"/>
					</g>
				</g>
				<g enable-background="new    ">
					<defs>
						<path id="SVGID_23_" enable-background="new    " d="M587.241,655.333c-0.175-0.088-0.351-0.176-0.526-0.264
							c-0.331-0.166-0.654-0.339-0.97-0.519c-4.073-2.331-7.184-5.695-9.304-10.096c-2.128-4.409-3.196-9.142-3.193-14.199
							c0.003-5.516,1.211-10.33,3.615-14.433c2.413-4.104,5.833-7.227,10.278-9.358c4.436-2.133,9.32-3.194,14.654-3.194
							l0.523,0.263c-5.334,0-10.218,1.062-14.654,3.193c-4.445,2.133-7.865,5.255-10.278,9.358
							c-2.404,4.104-3.612,8.918-3.615,14.433c-0.003,5.058,1.065,9.79,3.194,14.199c2.12,4.401,5.23,7.766,9.303,10.096
							C586.584,654.993,586.909,655.167,587.241,655.333z"/>
					</defs>
					<clipPath id="SVGID_24_">
						<use xlink:href="#SVGID_23_"  overflow="visible"/>
					</clipPath>
					<g clip-path="url(#SVGID_24_)" enable-background="new    ">
						<path fill="#1C2531" d="M587.241,655.333l-0.523-0.263c-0.332-0.166-0.656-0.34-0.973-0.52
							c-4.073-2.331-7.184-5.695-9.304-10.096c-2.128-4.409-3.196-9.142-3.193-14.199c0.003-5.319,1.127-9.986,3.363-13.992
							l0.523,0.263c-2.236,4.006-3.359,8.673-3.363,13.991c-0.003,5.058,1.065,9.79,3.194,14.199
							c2.12,4.401,5.23,7.766,9.303,10.096C586.584,654.993,586.909,655.167,587.241,655.333"/>
						<path fill="#1C2531" d="M577.133,616.526l-0.523-0.263c0.083-0.147,0.167-0.295,0.252-0.44
							c0.323-0.55,0.665-1.082,1.024-1.597l0.523,0.263c-0.359,0.515-0.701,1.047-1.024,1.596
							C577.3,616.231,577.216,616.379,577.133,616.526"/>
						<path fill="#1C2531" d="M578.41,614.489l-0.523-0.263c0.354-0.507,0.726-0.997,1.116-1.47l0.523,0.263
							C579.136,613.492,578.764,613.982,578.41,614.489"/>
						<path fill="#1C2531" d="M579.525,613.02l-0.523-0.263c0.334-0.405,0.681-0.798,1.041-1.179l0.523,0.263
							C580.207,612.221,579.859,612.614,579.525,613.02"/>
						<path fill="#1C2531" d="M580.566,611.841l-0.523-0.263c0.327-0.346,0.666-0.681,1.014-1.006l0.523,0.263
							C581.232,611.159,580.894,611.495,580.566,611.841"/>
						<path fill="#1C2531" d="M581.581,610.835l-0.523-0.263c0.329-0.306,0.667-0.603,1.015-0.891l0.524,0.263
							C582.248,610.231,581.909,610.528,581.581,610.835"/>
						<path fill="#1C2531" d="M582.596,609.944l-0.524-0.263c0.337-0.278,0.683-0.548,1.037-0.809l0.523,0.262
							C583.278,609.396,582.932,609.666,582.596,609.944"/>
						<path fill="#1C2531" d="M583.632,609.135l-0.523-0.262c0.351-0.259,0.71-0.508,1.079-0.749l0.523,0.263
							C584.343,608.628,583.983,608.877,583.632,609.135"/>
						<path fill="#1C2531" d="M584.711,608.387l-0.523-0.263c0.371-0.243,0.751-0.478,1.141-0.703l0.523,0.263
							C585.463,607.909,585.083,608.144,584.711,608.387"/>
						<path fill="#1C2531" d="M585.852,607.684l-0.523-0.263c0.4-0.231,0.81-0.455,1.229-0.668l0.523,0.263
							C586.662,607.229,586.252,607.451,585.852,607.684"/>
						<path fill="#1C2531" d="M587.081,607.016l-0.523-0.263c0.192-0.099,0.386-0.194,0.583-0.288
							c0.291-0.14,0.583-0.275,0.877-0.405l0.523,0.263c-0.294,0.13-0.586,0.265-0.877,0.404
							C587.467,606.821,587.273,606.917,587.081,607.016"/>
						<path fill="#1C2531" d="M588.541,606.322l-0.523-0.263c0.528-0.234,1.063-0.454,1.603-0.658l0.523,0.263
							C589.603,605.868,589.069,606.088,588.541,606.322"/>
						<path fill="#1C2531" d="M590.144,605.664l-0.523-0.263c0.563-0.213,1.131-0.409,1.707-0.591l0.524,0.263
							C591.275,605.254,590.706,605.451,590.144,605.664"/>
						<path fill="#1C2531" d="M591.851,605.073l-0.523-0.263c0.614-0.192,1.236-0.367,1.866-0.524l0.523,0.263
							C593.087,604.706,592.465,604.881,591.851,605.073"/>
						<path fill="#1C2531" d="M593.716,604.549l-0.523-0.263c0.692-0.172,1.395-0.322,2.105-0.451l0.523,0.263
							C595.111,604.227,594.409,604.377,593.716,604.549"/>
						<path fill="#1C2531" d="M595.822,604.098l-0.523-0.263c0.818-0.147,1.648-0.266,2.49-0.355l0.523,0.263
							C597.47,603.831,596.64,603.95,595.822,604.098"/>
						<path fill="#1C2531" d="M598.312,603.742l-0.523-0.263c1.049-0.112,2.118-0.179,3.205-0.201l0.523,0.263
							C600.43,603.563,599.361,603.63,598.312,603.742"/>
						<path fill="#1C2531" d="M601.517,603.541l-0.523-0.263c0.266-0.005,0.533-0.008,0.801-0.008l0.523,0.263
							C602.05,603.533,601.783,603.536,601.517,603.541"/>
					</g>
				</g>
				<g>
					<path fill="#1C2531" d="M602.318,603.533c6.044,0,11.125,1.35,15.252,4.04c4.118,2.699,6.985,6.496,8.601,11.383l-7.872,1.628
						c-1.401-3.852-3.432-6.658-6.093-8.422c-2.67-1.755-6.016-2.637-10.054-2.637c-4.65,0-8.528,0.981-11.65,2.925
						c-3.123,1.952-5.318,4.57-6.58,7.864c-1.27,3.284-1.902,6.677-1.904,10.167c-0.003,4.499,0.742,8.433,2.242,11.798
						c1.491,3.355,3.819,5.866,6.984,7.531c3.156,1.655,6.574,2.492,10.261,2.492c4.479,0,8.267-1.134,11.38-3.4
						c3.105-2.26,5.211-5.624,6.312-10.078l7.995,1.771c-1.676,5.759-4.701,10.142-9.056,13.165s-9.681,4.535-15.977,4.535
						c-6.512,0-11.81-1.161-15.892-3.483c-4.073-2.33-7.183-5.694-9.303-10.096c-2.129-4.409-3.197-9.142-3.194-14.199
						c0.003-5.515,1.211-10.329,3.615-14.433c2.413-4.104,5.833-7.226,10.278-9.358C592.1,604.595,596.984,603.533,602.318,603.533z
						"/>
				</g>
			</g>
			<g enable-background="new    ">
				<g enable-background="new    ">
					<defs>
						<path id="SVGID_25_" enable-background="new    " d="M683.273,611.54c0.175,0.087,0.349,0.175,0.523,0.263
							c0.242,0.121,0.481,0.246,0.718,0.377c3.201,1.773,5.637,4.265,7.29,7.479c1.662,3.221,2.497,6.981,2.494,11.292
							c-0.004,6.82-1.95,12.075-5.847,15.783l-0.523-0.263c3.897-3.708,5.843-8.963,5.847-15.782
							c0.003-4.312-0.832-8.072-2.494-11.293c-1.653-3.214-4.089-5.705-7.29-7.479C683.754,611.787,683.515,611.661,683.273,611.54z
							"/>
					</defs>
					<clipPath id="SVGID_26_">
						<use xlink:href="#SVGID_25_"  overflow="visible"/>
					</clipPath>
					<g clip-path="url(#SVGID_26_)" enable-background="new    ">
						<path fill="#1C2531" d="M688.451,646.733l-0.523-0.263c0.22-0.209,0.435-0.424,0.642-0.644l0.523,0.263
							C688.886,646.31,688.671,646.523,688.451,646.733"/>
						<path fill="#1C2531" d="M689.093,646.09l-0.523-0.263c0.273-0.288,0.536-0.585,0.787-0.891l0.523,0.262
							C689.629,645.504,689.367,645.802,689.093,646.09"/>
						<path fill="#1C2531" d="M689.88,645.198l-0.523-0.262c0.288-0.35,0.562-0.711,0.821-1.082l0.523,0.263
							C690.442,644.488,690.168,644.85,689.88,645.198"/>
						<path fill="#1C2531" d="M690.701,644.117l-0.523-0.263c0.333-0.478,0.643-0.973,0.93-1.487l0.523,0.263
							C691.345,643.144,691.035,643.64,690.701,644.117"/>
						<path fill="#1C2531" d="M691.631,642.63l-0.523-0.263c1.776-3.184,2.664-7.074,2.667-11.679
							c0.003-4.312-0.832-8.072-2.494-11.293c-1.653-3.214-4.089-5.705-7.29-7.479c-0.237-0.13-0.476-0.256-0.718-0.377l0.523,0.263
							c0.242,0.121,0.481,0.246,0.718,0.377c3.201,1.773,5.637,4.265,7.29,7.479c1.662,3.221,2.497,6.981,2.494,11.292
							C694.295,635.556,693.407,639.446,691.631,642.63"/>
					</g>
				</g>
				<g enable-background="new    ">
					<defs>
						<path id="SVGID_27_" enable-background="new    " d="M663.553,650.089c-0.175-0.088-0.35-0.175-0.524-0.263
							c2.943,1.476,6.289,2.214,10.037,2.214c6.017,0,10.974-1.853,14.862-5.569l0.523,0.263c-3.888,3.716-8.845,5.569-14.862,5.569
							C669.842,652.303,666.497,651.564,663.553,650.089z"/>
					</defs>
					<clipPath id="SVGID_28_">
						<use xlink:href="#SVGID_27_"  overflow="visible"/>
					</clipPath>
					<g clip-path="url(#SVGID_28_)" enable-background="new    ">
						<path fill="#1C2531" d="M663.552,650.088l-0.523-0.262c0.073,0.036,0.146,0.072,0.22,0.108l0.524,0.263
							C663.699,650.161,663.625,650.125,663.552,650.088"/>
						<path fill="#1C2531" d="M663.772,650.197l-0.524-0.263c2.186,1.062,4.59,1.722,7.212,1.98l0.523,0.263
							C668.362,651.919,665.958,651.259,663.772,650.197"/>
						<path fill="#1C2531" d="M670.984,652.178l-0.523-0.263c0.846,0.083,1.713,0.125,2.604,0.125c0.19,0,0.379-0.002,0.567-0.005
							l0.523,0.262c-0.188,0.004-0.377,0.006-0.567,0.006C672.698,652.303,671.83,652.261,670.984,652.178"/>
						<path fill="#1C2531" d="M674.156,652.297l-0.523-0.262c0.779-0.016,1.54-0.063,2.282-0.142l0.523,0.263
							C675.696,652.234,674.935,652.282,674.156,652.297"/>
						<path fill="#1C2531" d="M676.438,652.156l-0.523-0.263c0.583-0.063,1.155-0.144,1.715-0.245l0.524,0.263
							C677.593,652.013,677.021,652.094,676.438,652.156"/>
						<path fill="#1C2531" d="M678.154,651.911l-0.524-0.263c0.48-0.086,0.952-0.188,1.415-0.303l0.523,0.263
							C679.105,651.724,678.634,651.824,678.154,651.911"/>
						<path fill="#1C2531" d="M679.568,651.608l-0.523-0.263c0.412-0.103,0.818-0.216,1.217-0.342l0.523,0.263
							C680.386,651.392,679.98,651.506,679.568,651.608"/>
						<path fill="#1C2531" d="M680.785,651.267l-0.523-0.263c0.371-0.116,0.737-0.242,1.097-0.379l0.523,0.263
							C681.522,651.023,681.156,651.15,680.785,651.267"/>
						<path fill="#1C2531" d="M681.882,650.888l-0.523-0.263c0.34-0.128,0.674-0.266,1.004-0.412l0.523,0.263
							C682.557,650.622,682.222,650.759,681.882,650.888"/>
						<path fill="#1C2531" d="M682.886,650.476l-0.523-0.263c0.32-0.142,0.635-0.291,0.945-0.45l0.524,0.263
							C683.521,650.184,683.206,650.334,682.886,650.476"/>
						<path fill="#1C2531" d="M683.832,650.025l-0.524-0.263c0.306-0.155,0.607-0.319,0.904-0.491l0.523,0.262
							C684.439,649.705,684.138,649.869,683.832,650.025"/>
						<path fill="#1C2531" d="M684.736,649.533l-0.523-0.262c0.298-0.173,0.591-0.354,0.88-0.543l0.523,0.263
							C685.327,649.18,685.034,649.36,684.736,649.533"/>
						<path fill="#1C2531" d="M685.616,648.991l-0.523-0.263c0.294-0.192,0.584-0.394,0.869-0.604l0.523,0.263
							C686.2,648.597,685.91,648.798,685.616,648.991"/>
						<path fill="#1C2531" d="M686.485,648.388l-0.523-0.263c0.297-0.219,0.588-0.446,0.875-0.683l0.523,0.263
							C687.073,647.941,686.782,648.169,686.485,648.388"/>
						<path fill="#1C2531" d="M687.359,647.705l-0.523-0.263c0.306-0.253,0.605-0.516,0.899-0.789l0.523,0.263
							C687.965,647.189,687.665,647.452,687.359,647.705"/>
						<path fill="#1C2531" d="M688.258,646.916l-0.523-0.263c0.064-0.061,0.129-0.121,0.193-0.183l0.523,0.263
							C688.387,646.795,688.323,646.855,688.258,646.916"/>
					</g>
				</g>
				<g enable-background="new    ">
					<defs>
						<path id="SVGID_29_" enable-background="new    " d="M659.085,655.055c-0.175-0.088-0.351-0.177-0.526-0.265
							c-0.237-0.118-0.472-0.24-0.705-0.365c-4.478-2.411-7.867-5.695-10.176-9.861c-2.309-4.166-3.458-8.576-3.455-13.229
							c0.005-8.791,2.699-15.665,8.09-20.641c5.391-4.977,12.345-7.46,20.863-7.46c5.412,0,10.315,1.102,14.693,3.297l0,0
							c0.087,0.044,0.174,0.088,0.261,0.131c0.008,0.004,0.018,0.01,0.026,0.014c0.079,0.039,0.157,0.078,0.235,0.117
							c-4.377-2.194-9.28-3.296-14.692-3.296c-8.518,0-15.472,2.482-20.863,7.459c-5.391,4.976-8.084,11.851-8.09,20.642
							c-0.002,4.652,1.146,9.062,3.455,13.228c2.31,4.167,5.698,7.451,10.176,9.862
							C658.612,654.813,658.848,654.936,659.085,655.055z"/>
					</defs>
					<clipPath id="SVGID_30_">
						<use xlink:href="#SVGID_29_"  overflow="visible"/>
					</clipPath>
					<g clip-path="url(#SVGID_30_)" enable-background="new    ">
						<path fill="#1C2531" d="M659.085,655.055l-0.524-0.263c-0.237-0.119-0.473-0.242-0.708-0.367
							c-4.478-2.411-7.867-5.695-10.176-9.861c-2.309-4.166-3.458-8.576-3.455-13.229c0.003-5.739,1.153-10.662,3.451-14.773
							l0.523,0.263c-2.298,4.11-3.447,9.033-3.451,14.773c-0.002,4.652,1.146,9.062,3.455,13.228
							c2.31,4.167,5.698,7.451,10.176,9.862C658.612,654.813,658.848,654.936,659.085,655.055"/>
						<path fill="#1C2531" d="M648.197,616.824l-0.523-0.263c0.383-0.686,0.799-1.349,1.246-1.989l0.523,0.262
							C648.996,615.475,648.581,616.139,648.197,616.824"/>
						<path fill="#1C2531" d="M649.443,614.834l-0.523-0.262c0.356-0.51,0.732-1.006,1.129-1.487l0.523,0.263
							C650.176,613.829,649.799,614.324,649.443,614.834"/>
						<path fill="#1C2531" d="M650.572,613.348l-0.523-0.263c0.346-0.419,0.707-0.828,1.084-1.227l0.523,0.263
							C651.279,612.52,650.918,612.928,650.572,613.348"/>
						<path fill="#1C2531" d="M651.656,612.121l-0.523-0.263c0.353-0.373,0.72-0.736,1.1-1.091l0.523,0.263
							C652.376,611.385,652.009,611.748,651.656,612.121"/>
						<path fill="#1C2531" d="M652.756,611.03l-0.523-0.263c0.027-0.024,0.053-0.049,0.08-0.073c0.369-0.341,0.746-0.67,1.13-0.987
							l0.523,0.262c-0.384,0.317-0.761,0.646-1.13,0.987C652.809,610.981,652.783,611.006,652.756,611.03"/>
						<path fill="#1C2531" d="M653.966,609.969l-0.523-0.262c0.392-0.325,0.792-0.638,1.2-0.938l0.523,0.263
							C654.758,609.332,654.358,609.645,653.966,609.969"/>
						<path fill="#1C2531" d="M655.166,609.032l-0.523-0.263c0.393-0.289,0.793-0.567,1.201-0.834l0.523,0.263
							C655.959,608.465,655.559,608.743,655.166,609.032"/>
						<path fill="#1C2531" d="M656.367,608.198l-0.523-0.263c0.4-0.262,0.807-0.513,1.221-0.753l0.523,0.263
							C657.174,607.686,656.767,607.937,656.367,608.198"/>
						<path fill="#1C2531" d="M657.588,607.445l-0.523-0.263c0.414-0.239,0.835-0.469,1.263-0.688l0.524,0.263
							C658.423,606.977,658.002,607.205,657.588,607.445"/>
						<path fill="#1C2531" d="M658.851,606.758l-0.524-0.263c0.436-0.222,0.879-0.433,1.329-0.632l0.523,0.262
							C659.729,606.325,659.287,606.536,658.851,606.758"/>
						<path fill="#1C2531" d="M660.18,606.125l-0.523-0.262c0.468-0.208,0.943-0.402,1.427-0.586l0.523,0.263
							C661.123,605.723,660.647,605.918,660.18,606.125"/>
						<path fill="#1C2531" d="M661.606,605.54l-0.523-0.263c0.509-0.192,1.027-0.371,1.553-0.537l0.523,0.263
							C662.633,605.169,662.116,605.348,661.606,605.54"/>
						<path fill="#1C2531" d="M663.16,605.003l-0.523-0.263c0.577-0.181,1.164-0.346,1.76-0.494l0.524,0.263
							C664.323,604.657,663.736,604.822,663.16,605.003"/>
						<path fill="#1C2531" d="M664.92,604.509l-0.524-0.263c0.669-0.166,1.351-0.312,2.045-0.437l0.523,0.262
							C666.271,604.197,665.589,604.343,664.92,604.509"/>
						<path fill="#1C2531" d="M666.965,604.071l-0.523-0.262c0.818-0.148,1.655-0.268,2.51-0.358l0.523,0.263
							C668.62,603.805,667.783,603.924,666.965,604.071"/>
						<path fill="#1C2531" d="M669.475,603.714l-0.523-0.263c1.095-0.116,2.22-0.186,3.374-0.208l0.523,0.263
							C671.694,603.528,670.57,603.598,669.475,603.714"/>
						<path fill="#1C2531" d="M672.848,603.506l-0.523-0.263c0.282-0.006,0.565-0.009,0.851-0.009c1.258,0,2.489,0.06,3.692,0.179
							l0.523,0.263c-1.203-0.119-2.434-0.179-3.692-0.179C673.414,603.497,673.13,603.5,672.848,603.506"/>
						<path fill="#1C2531" d="M677.391,603.676l-0.523-0.263c3.849,0.381,7.415,1.37,10.69,2.965l0.523,0.263
							C684.806,605.046,681.241,604.057,677.391,603.676"/>
						<path fill="#1C2531" d="M688.081,606.641l-0.523-0.263c0.104,0.051,0.207,0.102,0.311,0.153l0.523,0.263
							C688.289,606.742,688.185,606.691,688.081,606.641"/>
					</g>
				</g>
				<g>
					<path fill="#1C2531" d="M699.02,616.769c2.354,4.185,3.521,8.917,3.518,14.218c-0.003,5.371-1.239,10.177-3.714,14.415
						c-2.476,4.237-5.986,7.45-10.521,9.628c-4.535,2.178-9.428,3.267-14.672,3.267c-5.693,0-10.774-1.206-15.252-3.608
						c-4.478-2.411-7.867-5.695-10.176-9.862c-2.309-4.166-3.458-8.575-3.455-13.228c0.005-8.791,2.699-15.666,8.09-20.642
						c5.391-4.977,12.345-7.459,20.863-7.459c5.577,0,10.613,1.17,15.091,3.5C693.268,609.337,696.675,612.594,699.02,616.769z
						 M688.451,646.733c3.897-3.708,5.843-8.963,5.847-15.783c0.003-4.311-0.832-8.071-2.494-11.292
						c-1.653-3.214-4.089-5.705-7.29-7.479c-3.201-1.763-6.79-2.654-10.774-2.654c-5.667,0-10.534,1.709-14.619,5.111
						c-4.086,3.41-6.122,9.097-6.127,17.069c-0.004,6.389,1.945,11.41,5.864,15.09c3.911,3.671,8.821,5.507,14.73,5.507
						C679.606,652.303,684.563,650.449,688.451,646.733"/>
				</g>
			</g>
			<g enable-background="new    ">
				<g>
					<polygon fill="#1C2531" points="762.828,646.013 762.305,645.75 762.329,604.17 762.853,604.433 					"/>
				</g>
				<g>
					<polygon fill="#1C2531" points="762.853,604.433 762.329,604.17 769.993,604.17 770.516,604.433 					"/>
				</g>
				<g>
					<polygon fill="#1C2531" points="762.281,657.396 761.758,657.133 730.05,615.517 730.573,615.778 					"/>
				</g>
				<g>
					<polygon fill="#1C2531" points="722.908,604.433 722.384,604.17 730.587,604.17 731.111,604.433 					"/>
				</g>
				<g>
					<polygon fill="#1C2531" points="722.876,657.396 722.353,657.133 722.384,604.17 722.908,604.433 					"/>
				</g>
				<g>
					<polygon fill="#1C2531" points="770.516,604.433 770.484,657.396 762.281,657.396 730.573,615.778 730.548,657.396 
						722.876,657.396 722.908,604.433 731.111,604.433 762.828,646.013 762.853,604.433 					"/>
				</g>
			</g>
			<g enable-background="new    ">
				<g enable-background="new    ">
					<defs>
						<path id="SVGID_31_" enable-background="new    " d="M805.601,649.629l-0.524-0.263c0.578,0.29,1.196,0.56,1.856,0.812
							c2.751,1.044,5.836,1.574,9.272,1.574c3.049,0,5.748-0.404,8.086-1.195c2.33-0.792,4.067-1.882,5.21-3.268
							s1.71-2.896,1.711-4.535c0.001-1.665-0.546-3.112-1.643-4.354c-0.676-0.766-1.626-1.453-2.848-2.065l0.524,0.262
							c1.222,0.613,2.171,1.3,2.848,2.066c1.097,1.242,1.645,2.689,1.644,4.354c-0.001,1.639-0.569,3.149-1.712,4.535
							s-2.88,2.475-5.21,3.267c-2.339,0.792-5.038,1.196-8.086,1.196c-3.436,0-6.521-0.53-9.272-1.575
							C806.797,650.188,806.178,649.918,805.601,649.629z"/>
					</defs>
					<clipPath id="SVGID_32_">
						<use xlink:href="#SVGID_31_"  overflow="visible"/>
					</clipPath>
					<g clip-path="url(#SVGID_32_)" enable-background="new    ">
						<path fill="#1C2531" d="M805.601,649.629l-0.524-0.263c0.063,0.032,0.127,0.063,0.191,0.095l0.523,0.262
							C805.728,649.691,805.664,649.66,805.601,649.629"/>
						<path fill="#1C2531" d="M805.792,649.723l-0.523-0.262c0.522,0.254,1.077,0.492,1.665,0.717
							c1.922,0.729,4.007,1.208,6.26,1.431l0.524,0.263c-2.253-0.223-4.338-0.701-6.261-1.432
							C806.869,650.216,806.314,649.978,805.792,649.723"/>
						<path fill="#1C2531" d="M813.717,651.871l-0.524-0.263c0.973,0.096,1.977,0.144,3.012,0.144c0.227,0,0.452-0.002,0.675-0.007
							l0.524,0.263c-0.224,0.005-0.449,0.007-0.676,0.007C815.693,652.015,814.689,651.967,813.717,651.871"/>
						<path fill="#1C2531" d="M817.405,652.008l-0.524-0.263c0.886-0.018,1.741-0.07,2.565-0.158l0.523,0.263
							C819.146,651.938,818.291,651.99,817.405,652.008"/>
						<path fill="#1C2531" d="M819.97,651.85l-0.523-0.263c0.627-0.066,1.236-0.153,1.827-0.261l0.523,0.263
							C821.206,651.695,820.597,651.782,819.97,651.85"/>
						<path fill="#1C2531" d="M821.796,651.589l-0.523-0.263c0.489-0.088,0.965-0.189,1.429-0.306l0.523,0.263
							C822.762,651.398,822.285,651.501,821.796,651.589"/>
						<path fill="#1C2531" d="M823.226,651.283l-0.523-0.263c0.405-0.101,0.801-0.212,1.187-0.333l0.523,0.263
							C824.026,651.071,823.631,651.183,823.226,651.283"/>
						<path fill="#1C2531" d="M824.412,650.95l-0.523-0.263c0.136-0.042,0.27-0.086,0.403-0.131c0.2-0.068,0.396-0.139,0.588-0.211
							l0.523,0.262c-0.191,0.073-0.387,0.144-0.588,0.211C824.683,650.863,824.548,650.907,824.412,650.95"/>
						<path fill="#1C2531" d="M825.403,650.607l-0.523-0.262c0.287-0.109,0.564-0.223,0.831-0.341l0.523,0.263
							C825.967,650.386,825.69,650.499,825.403,650.607"/>
						<path fill="#1C2531" d="M826.234,650.268l-0.523-0.263c0.239-0.106,0.471-0.216,0.694-0.33l0.524,0.263
							C826.705,650.052,826.474,650.161,826.234,650.268"/>
						<path fill="#1C2531" d="M826.929,649.938l-0.524-0.263c0.205-0.104,0.403-0.212,0.595-0.323l0.523,0.263
							C827.331,649.726,827.133,649.833,826.929,649.938"/>
						<path fill="#1C2531" d="M827.523,649.614L827,649.352c0.179-0.104,0.352-0.21,0.52-0.319l0.523,0.263
							C827.875,649.404,827.702,649.511,827.523,649.614"/>
						<path fill="#1C2531" d="M828.042,649.295l-0.523-0.263c0.16-0.104,0.314-0.212,0.463-0.321l0.523,0.263
							C828.356,649.083,828.202,649.19,828.042,649.295"/>
						<path fill="#1C2531" d="M828.505,648.974l-0.523-0.263c0.145-0.106,0.285-0.216,0.42-0.327l0.523,0.263
							C828.791,648.758,828.65,648.867,828.505,648.974"/>
						<path fill="#1C2531" d="M828.925,648.646l-0.523-0.263c0.134-0.111,0.263-0.225,0.388-0.34l0.523,0.262
							C829.188,648.422,829.06,648.535,828.925,648.646"/>
						<path fill="#1C2531" d="M829.313,648.306l-0.523-0.262c0.126-0.118,0.248-0.238,0.364-0.361l0.524,0.263
							C829.561,648.068,829.439,648.188,829.313,648.306"/>
						<path fill="#1C2531" d="M829.678,647.945l-0.524-0.263c0.122-0.129,0.238-0.26,0.348-0.394
							c0.001-0.001,0.002-0.003,0.004-0.004l0.523,0.262c-0.001,0.002-0.002,0.003-0.004,0.005
							C829.915,647.686,829.799,647.816,829.678,647.945"/>
						<path fill="#1C2531" d="M830.029,647.547l-0.523-0.262c0.149-0.182,0.289-0.365,0.419-0.551l0.523,0.262
							C830.318,647.182,830.179,647.365,830.029,647.547"/>
						<path fill="#1C2531" d="M830.448,646.996l-0.523-0.262c0.152-0.219,0.292-0.44,0.417-0.665l0.523,0.263
							C830.74,646.557,830.601,646.777,830.448,646.996"/>
						<path fill="#1C2531" d="M830.865,646.332l-0.523-0.263c0.582-1.041,0.871-2.146,0.872-3.315
							c0.001-1.665-0.546-3.112-1.643-4.354c-0.676-0.766-1.626-1.453-2.848-2.065l0.524,0.262c1.222,0.613,2.171,1.3,2.848,2.066
							c1.097,1.242,1.645,2.689,1.644,4.354C831.736,644.187,831.447,645.291,830.865,646.332"/>
					</g>
				</g>
				<g enable-background="new    ">
					<defs>
						<path id="SVGID_33_" enable-background="new    " d="M823.866,611.157l0.523,0.263c0.508,0.255,0.979,0.538,1.412,0.85
							c2.374,1.719,3.775,4.247,4.178,7.595l-0.523-0.263c-0.402-3.348-1.804-5.876-4.178-7.595
							C824.845,611.695,824.374,611.412,823.866,611.157z"/>
					</defs>
					<clipPath id="SVGID_34_">
						<use xlink:href="#SVGID_33_"  overflow="visible"/>
					</clipPath>
					<g clip-path="url(#SVGID_34_)" enable-background="new    ">
						<path fill="#1C2531" d="M829.979,619.864l-0.523-0.263c-0.402-3.348-1.804-5.876-4.178-7.595
							c-0.433-0.312-0.903-0.595-1.412-0.85l0.523,0.263c0.508,0.255,0.979,0.538,1.412,0.85
							C828.175,613.988,829.577,616.517,829.979,619.864"/>
					</g>
				</g>
				<g enable-background="new    ">
					<defs>
						<path id="SVGID_35_" enable-background="new    " d="M828.496,606.127l0.523,0.263c-0.7-0.351-1.441-0.671-2.225-0.958
							c-3.417-1.269-7.366-1.898-11.845-1.898l-0.523-0.263c4.479,0,8.428,0.63,11.845,1.898
							C827.055,605.457,827.796,605.776,828.496,606.127z"/>
					</defs>
					<clipPath id="SVGID_36_">
						<use xlink:href="#SVGID_35_"  overflow="visible"/>
					</clipPath>
					<g clip-path="url(#SVGID_36_)" enable-background="new    ">
						<path fill="#1C2531" d="M814.95,603.533l-0.523-0.263c1.449,0,2.843,0.066,4.181,0.198l0.523,0.263
							C817.793,603.6,816.399,603.533,814.95,603.533"/>
						<path fill="#1C2531" d="M819.131,603.731l-0.523-0.263c2.798,0.276,5.353,0.842,7.664,1.7
							c0.705,0.259,1.377,0.544,2.015,0.854l0.523,0.263c-0.638-0.311-1.309-0.596-2.015-0.854
							C824.483,604.573,821.929,604.008,819.131,603.731"/>
						<path fill="#1C2531" d="M828.81,606.286l-0.523-0.263c0.07,0.034,0.14,0.068,0.21,0.104l0.523,0.263
							C828.95,606.354,828.88,606.32,828.81,606.286"/>
					</g>
				</g>
				<g enable-background="new    ">
					<defs>
						<path id="SVGID_37_" enable-background="new    " d="M804.848,623.048l-0.523-0.262c2.005,1.005,5.65,2.033,10.935,3.079
							c6.493,1.286,10.954,2.411,13.373,3.374c0.715,0.289,1.393,0.594,2.032,0.914l0.523,0.263
							c-0.639-0.32-1.316-0.625-2.032-0.914c-2.418-0.963-6.88-2.088-13.373-3.375C810.498,625.081,806.853,624.054,804.848,623.048
							z"/>
					</defs>
					<clipPath id="SVGID_38_">
						<use xlink:href="#SVGID_37_"  overflow="visible"/>
					</clipPath>
					<g clip-path="url(#SVGID_38_)" enable-background="new    ">
						<path fill="#1C2531" d="M804.848,623.048l-0.523-0.262c0.038,0.019,0.077,0.038,0.117,0.058l0.523,0.263
							C804.925,623.087,804.886,623.067,804.848,623.048"/>
						<path fill="#1C2531" d="M804.965,623.106l-0.523-0.263c2.028,0.987,5.634,1.995,10.817,3.021
							c6.493,1.286,10.954,2.411,13.373,3.374c0.616,0.249,1.203,0.509,1.763,0.781l0.523,0.263
							c-0.56-0.272-1.147-0.533-1.763-0.781c-2.418-0.963-6.88-2.088-13.373-3.375C810.599,625.102,806.993,624.093,804.965,623.106
							"/>
						<path fill="#1C2531" d="M830.917,630.283l-0.523-0.263c0.09,0.044,0.18,0.089,0.269,0.133l0.523,0.263
							C831.098,630.371,831.008,630.327,830.917,630.283"/>
					</g>
				</g>
				<g>
					<polygon fill="#1C2531" points="791.344,640.38 790.82,640.118 798.368,639.542 798.891,639.805 					"/>
				</g>
				<g enable-background="new    ">
					<defs>
						<path id="SVGID_39_" enable-background="new    " d="M801.153,655.24l-0.523-0.263c-2.666-1.337-4.829-3.114-6.496-5.339
							c-2.103-2.809-3.208-5.984-3.313-9.521l0.523,0.262c0.106,3.537,1.211,6.713,3.314,9.521
							C796.324,652.125,798.488,653.903,801.153,655.24z"/>
					</defs>
					<clipPath id="SVGID_40_">
						<use xlink:href="#SVGID_39_"  overflow="visible"/>
					</clipPath>
					<g clip-path="url(#SVGID_40_)" enable-background="new    ">
						<path fill="#1C2531" d="M801.153,655.24l-0.523-0.263c-2.666-1.337-4.829-3.114-6.496-5.339
							c-2.103-2.809-3.208-5.984-3.313-9.521l0.523,0.262c0.106,3.537,1.211,6.713,3.314,9.521
							C796.324,652.125,798.488,653.903,801.153,655.24"/>
					</g>
				</g>
				<g enable-background="new    ">
					<defs>
						<path id="SVGID_41_" enable-background="new    " d="M801.511,629.307l-0.523-0.262c-2.525-1.267-4.433-2.791-5.723-4.593
							c-1.42-1.962-2.12-4.157-2.119-6.587c0.001-2.672,0.867-5.174,2.604-7.495c1.729-2.331,4.257-4.094,7.585-5.291
							c3.329-1.206,7.017-1.809,11.092-1.809l0.523,0.263c-4.075,0-7.763,0.603-11.092,1.809c-3.328,1.196-5.857,2.96-7.585,5.291
							c-1.737,2.321-2.603,4.822-2.604,7.495c-0.001,2.429,0.699,4.625,2.119,6.587
							C797.078,626.517,798.986,628.041,801.511,629.307z"/>
					</defs>
					<clipPath id="SVGID_42_">
						<use xlink:href="#SVGID_41_"  overflow="visible"/>
					</clipPath>
					<g clip-path="url(#SVGID_42_)" enable-background="new    ">
						<path fill="#1C2531" d="M801.511,629.307l-0.523-0.262c-2.525-1.267-4.433-2.791-5.723-4.593
							c-1.42-1.962-2.12-4.157-2.119-6.587c0.001-2.067,0.519-4.032,1.558-5.891l0.523,0.263c-1.039,1.858-1.557,3.823-1.558,5.891
							c-0.001,2.429,0.699,4.625,2.119,6.587C797.078,626.517,798.986,628.041,801.511,629.307"/>
						<path fill="#1C2531" d="M795.227,612.237l-0.523-0.263c0.227-0.406,0.479-0.807,0.756-1.203l0.523,0.263
							C795.706,611.43,795.454,611.831,795.227,612.237"/>
						<path fill="#1C2531" d="M795.982,611.034l-0.523-0.263c0.094-0.135,0.19-0.269,0.291-0.401
							c0.13-0.176,0.265-0.349,0.405-0.518l0.523,0.263c-0.14,0.169-0.274,0.342-0.405,0.518
							C796.173,610.766,796.076,610.899,795.982,611.034"/>
						<path fill="#1C2531" d="M796.678,610.115l-0.523-0.263c0.191-0.232,0.391-0.458,0.599-0.678l0.523,0.263
							C797.068,609.657,796.869,609.883,796.678,610.115"/>
						<path fill="#1C2531" d="M797.276,609.438l-0.523-0.263c0.193-0.204,0.394-0.403,0.602-0.597l0.524,0.262
							C797.67,609.034,797.47,609.233,797.276,609.438"/>
						<path fill="#1C2531" d="M797.878,608.84l-0.524-0.262c0.2-0.187,0.407-0.368,0.621-0.545l0.523,0.263
							C798.285,608.473,798.078,608.654,797.878,608.84"/>
						<path fill="#1C2531" d="M798.499,608.296l-0.523-0.263c0.211-0.175,0.429-0.344,0.653-0.509l0.523,0.262
							C798.928,607.951,798.71,608.121,798.499,608.296"/>
						<path fill="#1C2531" d="M799.152,607.786l-0.523-0.262c0.226-0.167,0.459-0.328,0.698-0.485l0.523,0.263
							C799.611,607.459,799.378,607.62,799.152,607.786"/>
						<path fill="#1C2531" d="M799.85,607.302l-0.523-0.263c0.247-0.161,0.5-0.317,0.761-0.469l0.524,0.263
							C800.351,606.984,800.097,607.141,799.85,607.302"/>
						<path fill="#1C2531" d="M800.611,606.833l-0.524-0.263c0.273-0.158,0.554-0.311,0.843-0.458l0.523,0.263
							C801.165,606.522,800.884,606.675,800.611,606.833"/>
						<path fill="#1C2531" d="M801.454,606.375l-0.523-0.263c0.308-0.156,0.625-0.308,0.95-0.452l0.523,0.263
							C802.078,606.067,801.761,606.218,801.454,606.375"/>
						<path fill="#1C2531" d="M802.404,605.923l-0.523-0.263c0.361-0.159,0.732-0.312,1.115-0.456l0.523,0.263
							C803.136,605.611,802.765,605.764,802.404,605.923"/>
						<path fill="#1C2531" d="M803.519,605.467l-0.523-0.263c0.112-0.042,0.226-0.084,0.34-0.125
							c0.372-0.135,0.748-0.262,1.129-0.382l0.523,0.263c-0.381,0.119-0.757,0.247-1.129,0.382
							C803.744,605.383,803.631,605.424,803.519,605.467"/>
						<path fill="#1C2531" d="M804.987,604.96l-0.523-0.263c0.547-0.172,1.104-0.328,1.669-0.469l0.523,0.263
							C806.091,604.632,805.534,604.788,804.987,604.96"/>
						<path fill="#1C2531" d="M806.656,604.491l-0.523-0.263c0.632-0.157,1.276-0.295,1.932-0.414l0.523,0.263
							C807.933,604.195,807.289,604.334,806.656,604.491"/>
						<path fill="#1C2531" d="M808.588,604.077l-0.523-0.263c0.773-0.14,1.563-0.252,2.369-0.338l0.523,0.263
							C810.151,603.825,809.361,603.938,808.588,604.077"/>
						<path fill="#1C2531" d="M810.957,603.739l-0.523-0.263c1.032-0.11,2.091-0.176,3.179-0.197l0.523,0.262
							C813.048,603.563,811.989,603.629,810.957,603.739"/>
						<path fill="#1C2531" d="M814.136,603.541l-0.523-0.262c0.27-0.006,0.541-0.009,0.814-0.009l0.523,0.263
							C814.677,603.533,814.406,603.536,814.136,603.541"/>
					</g>
				</g>
				<g>
					<path fill="#1C2531" d="M814.95,603.533c4.479,0,8.428,0.63,11.845,1.898c3.426,1.259,6.052,3.122,7.894,5.578
						c1.833,2.457,2.821,5.237,2.963,8.342l-7.673,0.513c-0.402-3.348-1.804-5.876-4.178-7.595
						c-2.374-1.709-5.881-2.563-10.531-2.563c-4.83,0-8.357,0.782-10.57,2.33c-2.213,1.557-3.321,3.429-3.323,5.624
						c-0.001,1.898,0.781,3.464,2.345,4.696c1.538,1.225,5.557,2.484,12.06,3.771c6.493,1.287,10.954,2.412,13.373,3.375
						c3.516,1.421,6.115,3.221,7.786,5.408c1.672,2.177,2.507,4.688,2.505,7.53c-0.002,2.816-0.921,5.472-2.767,7.964
						c-1.836,2.492-4.482,4.427-7.937,5.813c-3.446,1.386-7.332,2.079-11.64,2.079c-5.478,0-10.056-0.693-13.752-2.097
						c-3.696-1.396-6.59-3.491-8.693-6.299s-3.208-5.983-3.314-9.521l7.547-0.575c0.358,2.646,1.184,4.823,2.487,6.515
						c1.303,1.7,3.335,3.077,6.078,4.12c2.752,1.045,5.836,1.575,9.272,1.575c3.049,0,5.748-0.404,8.086-1.196
						c2.33-0.792,4.067-1.881,5.21-3.267s1.711-2.896,1.712-4.535c0.001-1.665-0.547-3.112-1.644-4.354
						c-1.096-1.242-2.913-2.277-5.44-3.123c-1.619-0.559-5.207-1.412-10.756-2.582c-5.549-1.17-9.434-2.269-11.664-3.302
						c-2.887-1.332-5.035-2.971-6.446-4.94c-1.42-1.962-2.12-4.158-2.119-6.587c0.001-2.673,0.867-5.174,2.604-7.495
						c1.729-2.331,4.257-4.095,7.585-5.291C807.188,604.136,810.875,603.533,814.95,603.533z"/>
				</g>
			</g>
			<g enable-background="new    ">
				<g>
					<polygon fill="#1C2531" points="900.164,635 899.641,634.737 899.659,604.17 900.183,604.433 					"/>
				</g>
				<g>
					<polygon fill="#1C2531" points="900.183,604.433 899.659,604.17 907.655,604.17 908.179,604.433 					"/>
				</g>
				<g enable-background="new    ">
					<defs>
						<path id="SVGID_43_" enable-background="new    " d="M875.113,650.206l-0.523-0.262c2.375,1.178,5.279,1.771,8.716,1.771
							c5.882,0,10.074-1.169,12.576-3.509c2.502-2.331,3.755-6.83,3.759-13.47l0.523,0.263c-0.004,6.64-1.257,11.139-3.759,13.47
							c-2.502,2.339-6.694,3.509-12.576,3.509C880.393,651.979,877.488,651.385,875.113,650.206z"/>
					</defs>
					<clipPath id="SVGID_44_">
						<use xlink:href="#SVGID_43_"  overflow="visible"/>
					</clipPath>
					<g clip-path="url(#SVGID_44_)" enable-background="new    ">
						<path fill="#1C2531" d="M875.113,650.206l-0.523-0.262c0.033,0.017,0.067,0.032,0.101,0.049l0.523,0.263
							C875.181,650.239,875.146,650.223,875.113,650.206"/>
						<path fill="#1C2531" d="M875.214,650.256l-0.523-0.263c1.728,0.84,3.731,1.374,6.013,1.6l0.523,0.263
							C878.945,651.63,876.941,651.096,875.214,650.256"/>
						<path fill="#1C2531" d="M881.227,651.855l-0.523-0.263c0.83,0.082,1.698,0.123,2.603,0.123c0.289,0,0.575-0.003,0.856-0.009
							l0.523,0.263c-0.281,0.006-0.567,0.009-0.856,0.009C882.925,651.979,882.057,651.938,881.227,651.855"/>
						<path fill="#1C2531" d="M884.686,651.97l-0.523-0.263c1.042-0.021,2.028-0.08,2.958-0.179l0.523,0.262
							C886.714,651.889,885.728,651.949,884.686,651.97"/>
						<path fill="#1C2531" d="M887.644,651.79l-0.523-0.262c0.654-0.07,1.281-0.159,1.88-0.267l0.523,0.263
							C888.925,651.632,888.298,651.721,887.644,651.79"/>
						<path fill="#1C2531" d="M889.523,651.524L889,651.262c0.467-0.084,0.916-0.181,1.349-0.288l0.523,0.263
							C890.439,651.344,889.99,651.439,889.523,651.524"/>
						<path fill="#1C2531" d="M890.872,651.236l-0.523-0.263c0.36-0.089,0.708-0.187,1.045-0.292l0.523,0.262
							C891.58,651.049,891.232,651.146,890.872,651.236"/>
						<path fill="#1C2531" d="M891.917,650.943l-0.523-0.262c0.29-0.092,0.571-0.188,0.845-0.292l0.523,0.263
							C892.489,650.756,892.207,650.853,891.917,650.943"/>
						<path fill="#1C2531" d="M892.762,650.652l-0.523-0.263c0.244-0.093,0.481-0.189,0.712-0.292l0.523,0.263
							C893.243,650.463,893.006,650.56,892.762,650.652"/>
						<path fill="#1C2531" d="M893.474,650.36l-0.523-0.263c0.212-0.093,0.417-0.191,0.617-0.293l0.523,0.263
							C893.891,650.169,893.686,650.267,893.474,650.36"/>
						<path fill="#1C2531" d="M894.091,650.067l-0.523-0.263c0.187-0.095,0.368-0.193,0.545-0.296l0.523,0.263
							C894.459,649.873,894.277,649.973,894.091,650.067"/>
						<path fill="#1C2531" d="M894.636,649.771l-0.523-0.263c0.168-0.098,0.332-0.198,0.49-0.303l0.523,0.263
							C894.968,649.573,894.804,649.674,894.636,649.771"/>
						<path fill="#1C2531" d="M895.126,649.469l-0.523-0.263c0.154-0.101,0.305-0.204,0.45-0.312l0.523,0.263
							C895.431,649.264,895.28,649.368,895.126,649.469"/>
						<path fill="#1C2531" d="M895.576,649.157l-0.523-0.263c0.144-0.105,0.283-0.215,0.418-0.326l0.524,0.262
							C895.859,648.942,895.72,649.051,895.576,649.157"/>
						<path fill="#1C2531" d="M895.995,648.83l-0.524-0.262c0.138-0.113,0.27-0.229,0.397-0.349l0.523,0.263
							C896.264,648.602,896.132,648.718,895.995,648.83"/>
						<path fill="#1C2531" d="M896.392,648.482l-0.523-0.263c0.005-0.005,0.009-0.009,0.014-0.013
							c0.112-0.104,0.222-0.213,0.329-0.326l0.523,0.263c-0.107,0.112-0.217,0.222-0.329,0.326
							C896.401,648.474,896.396,648.478,896.392,648.482"/>
						<path fill="#1C2531" d="M896.734,648.144l-0.523-0.263c0.122-0.13,0.241-0.265,0.357-0.405l0.523,0.263
							C896.976,647.879,896.856,648.014,896.734,648.144"/>
						<path fill="#1C2531" d="M897.092,647.738l-0.523-0.263c0.142-0.172,0.278-0.353,0.41-0.542l0.523,0.263
							C897.37,647.386,897.233,647.565,897.092,647.738"/>
						<path fill="#1C2531" d="M897.502,647.196l-0.523-0.263c0.181-0.258,0.352-0.532,0.514-0.822l0.523,0.263
							C897.854,646.664,897.683,646.938,897.502,647.196"/>
						<path fill="#1C2531" d="M898.016,646.374l-0.523-0.263c1.43-2.561,2.146-6.356,2.148-11.374l0.523,0.263
							C900.161,640.018,899.445,643.813,898.016,646.374"/>
					</g>
				</g>
				<g enable-background="new    ">
					<defs>
						<path id="SVGID_45_" enable-background="new    " d="M870.234,655.534l-0.523-0.263c-3.394-1.701-5.82-4.109-7.298-7.227
							c-1.545-3.238-2.307-7.666-2.304-13.271l0.523,0.262c-0.003,5.605,0.759,10.033,2.304,13.272
							C864.414,651.424,866.841,653.832,870.234,655.534z"/>
					</defs>
					<clipPath id="SVGID_46_">
						<use xlink:href="#SVGID_45_"  overflow="visible"/>
					</clipPath>
					<g clip-path="url(#SVGID_46_)" enable-background="new    ">
						<path fill="#1C2531" d="M870.234,655.534l-0.523-0.263c-3.394-1.701-5.82-4.109-7.298-7.227
							c-1.545-3.238-2.307-7.666-2.304-13.271l0.523,0.262c-0.003,5.605,0.759,10.033,2.304,13.272
							C864.414,651.424,866.841,653.832,870.234,655.534"/>
					</g>
				</g>
				<g>
					<polygon fill="#1C2531" points="860.651,604.433 860.128,604.17 868.123,604.17 868.646,604.433 					"/>
				</g>
				<g>
					<polygon fill="#1C2531" points="860.633,635.035 860.109,634.773 860.128,604.17 860.651,604.433 					"/>
				</g>
				<g>
					<path fill="#1C2531" d="M908.179,604.433l-0.019,30.603c-0.003,5.317-0.689,9.548-2.067,12.679s-3.861,5.678-7.442,7.639
						c-3.59,1.963-8.295,2.943-14.124,2.943c-5.657,0-10.29-0.854-13.886-2.564c-3.606-1.71-6.168-4.185-7.704-7.424
						c-1.545-3.239-2.307-7.667-2.304-13.272l0.019-30.603h7.995L868.629,635c-0.003,4.598,0.48,7.99,1.46,10.167
						c0.97,2.178,2.65,3.861,5.024,5.039c2.375,1.179,5.279,1.772,8.716,1.772c5.882,0,10.074-1.17,12.576-3.509
						c2.502-2.331,3.755-6.83,3.759-13.47l0.019-30.567H908.179z"/>
				</g>
			</g>
			<g enable-background="new    ">
				<g>
					<polygon fill="#1C2531" points="939.263,651.142 938.739,650.879 968.503,650.879 969.026,651.142 					"/>
				</g>
				<g>
					<polygon fill="#1C2531" points="931.263,657.396 930.739,657.133 930.771,604.17 931.295,604.433 					"/>
				</g>
				<g>
					<polygon fill="#1C2531" points="931.295,604.433 930.771,604.17 938.768,604.17 939.291,604.433 					"/>
				</g>
				<g>
					<polygon fill="#1C2531" points="939.291,604.433 939.263,651.142 969.026,651.142 969.022,657.396 931.263,657.396 
						931.295,604.433 					"/>
				</g>
			</g>
			<g enable-background="new    ">
				<g>
					<polygon fill="#1C2531" points="1004.047,657.396 1003.523,657.133 1003.552,610.424 1004.075,610.686 					"/>
				</g>
				<g>
					<polygon fill="#1C2531" points="984.17,610.686 983.646,610.424 983.65,604.17 984.174,604.433 					"/>
				</g>
				<g>
					<polygon fill="#1C2531" points="984.174,604.433 983.65,604.17 1031.547,604.17 1032.07,604.433 					"/>
				</g>
				<g>
					<polygon fill="#1C2531" points="1032.07,604.433 1032.066,610.686 1012.071,610.686 1012.044,657.396 1004.047,657.396 
						1004.075,610.686 984.17,610.686 984.174,604.433 					"/>
				</g>
			</g>
			<g enable-background="new    ">
				<g>
					<polygon fill="#1C2531" points="1051.728,657.396 1051.204,657.133 1051.236,604.17 1051.76,604.433 					"/>
				</g>
				<g>
					<polygon fill="#1C2531" points="1051.76,604.433 1051.236,604.17 1059.241,604.17 1059.765,604.433 					"/>
				</g>
				<g>
					<polygon fill="#1C2531" points="1059.765,604.433 1059.732,657.396 1051.728,657.396 1051.76,604.433 					"/>
				</g>
			</g>
			<g enable-background="new    ">
				<g>
					<polygon fill="#1C2531" points="1123.826,646.013 1123.303,645.75 1123.327,604.17 1123.851,604.433 					"/>
				</g>
				<g>
					<polygon fill="#1C2531" points="1123.851,604.433 1123.327,604.17 1130.991,604.17 1131.515,604.433 					"/>
				</g>
				<g>
					<polygon fill="#1C2531" points="1123.279,657.396 1122.756,657.133 1091.039,615.517 1091.563,615.778 					"/>
				</g>
				<g>
					<polygon fill="#1C2531" points="1083.906,604.433 1083.383,604.17 1091.586,604.17 1092.109,604.433 					"/>
				</g>
				<g>
					<polygon fill="#1C2531" points="1083.874,657.396 1083.351,657.133 1083.383,604.17 1083.906,604.433 					"/>
				</g>
				<g>
					<polygon fill="#1C2531" points="1131.515,604.433 1131.482,657.396 1123.279,657.396 1091.563,615.778 1091.538,657.396 
						1083.874,657.396 1083.906,604.433 1092.109,604.433 1123.826,646.013 1123.851,604.433 					"/>
				</g>
			</g>
			<g enable-background="new    ">
				<g>
					<polygon fill="#1C2531" points="1201.107,646.48 1200.584,646.218 1200.59,636.356 1201.113,636.619 					"/>
				</g>
				<g enable-background="new    ">
					<defs>
						<path id="SVGID_47_" enable-background="new    " d="M1193.09,611.49l0.523,0.263c1.584,0.794,2.865,1.75,3.844,2.866
							c1.339,1.547,2.471,3.661,3.378,6.36l-0.523-0.262c-0.907-2.7-2.039-4.813-3.378-6.361
							C1195.955,613.24,1194.674,612.285,1193.09,611.49z"/>
					</defs>
					<clipPath id="SVGID_48_">
						<use xlink:href="#SVGID_47_"  overflow="visible"/>
					</clipPath>
					<g clip-path="url(#SVGID_48_)" enable-background="new    ">
						<path fill="#1C2531" d="M1200.835,620.979l-0.523-0.262c-0.907-2.7-2.039-4.813-3.378-6.361
							c-0.979-1.116-2.26-2.071-3.844-2.866l0.523,0.263c1.584,0.794,2.865,1.75,3.844,2.866
							C1198.796,616.166,1199.928,618.28,1200.835,620.979"/>
					</g>
				</g>
				<g>
					<polygon fill="#1C2531" points="1183.34,636.619 1182.816,636.356 1182.82,630.148 1183.344,630.41 					"/>
				</g>
				<g>
					<polygon fill="#1C2531" points="1183.344,630.41 1182.82,630.148 1208.419,630.112 1208.942,630.374 					"/>
				</g>
				<g enable-background="new    ">
					<defs>
						<path id="SVGID_49_" enable-background="new    " d="M1171.197,649.215c-0.174-0.087-0.349-0.175-0.522-0.262
							c0.313,0.157,0.635,0.308,0.963,0.451c3.552,1.538,7.312,2.312,11.296,2.312c3.462,0,6.846-0.585,10.146-1.754
							c3.293-1.17,5.794-2.412,7.504-3.744l0.523,0.263c-1.71,1.332-4.211,2.574-7.504,3.743c-3.301,1.17-6.685,1.755-10.146,1.755
							c-3.984,0-7.744-0.773-11.296-2.313C1171.832,649.523,1171.512,649.372,1171.197,649.215z"/>
					</defs>
					<clipPath id="SVGID_50_">
						<use xlink:href="#SVGID_49_"  overflow="visible"/>
					</clipPath>
					<g clip-path="url(#SVGID_50_)" enable-background="new    ">
						<path fill="#1C2531" d="M1171.197,649.215l-0.523-0.263c0.071,0.036,0.143,0.071,0.215,0.106l0.523,0.263
							C1171.34,649.286,1171.269,649.251,1171.197,649.215"/>
						<path fill="#1C2531" d="M1171.412,649.321l-0.523-0.263c0.245,0.119,0.495,0.234,0.749,0.346
							c2.673,1.158,5.463,1.882,8.379,2.17l0.523,0.263c-2.915-0.288-5.706-1.013-8.379-2.171
							C1171.907,649.556,1171.657,649.44,1171.412,649.321"/>
						<path fill="#1C2531" d="M1180.54,651.837l-0.523-0.263c0.958,0.095,1.931,0.142,2.917,0.142c0.205,0,0.41-0.002,0.615-0.006
							l0.523,0.263c-0.205,0.004-0.41,0.006-0.615,0.006C1182.471,651.979,1181.498,651.932,1180.54,651.837"/>
						<path fill="#1C2531" d="M1184.072,651.973l-0.523-0.263c0.868-0.018,1.731-0.072,2.59-0.163l0.523,0.262
							C1185.804,651.9,1184.94,651.955,1184.072,651.973"/>
						<path fill="#1C2531" d="M1186.662,651.809l-0.523-0.262c0.721-0.077,1.438-0.18,2.151-0.309l0.523,0.263
							C1188.1,651.63,1187.383,651.732,1186.662,651.809"/>
						<path fill="#1C2531" d="M1188.813,651.501l-0.523-0.263c0.644-0.116,1.284-0.254,1.922-0.413l0.523,0.263
							C1190.098,651.247,1189.457,651.385,1188.813,651.501"/>
						<path fill="#1C2531" d="M1190.735,651.088l-0.523-0.263c0.6-0.148,1.196-0.316,1.79-0.503l0.523,0.262
							C1191.932,650.771,1191.335,650.938,1190.735,651.088"/>
						<path fill="#1C2531" d="M1192.525,650.584l-0.523-0.262c0.36-0.113,0.72-0.233,1.078-0.36c0.338-0.12,0.667-0.241,0.988-0.362
							l0.523,0.263c-0.321,0.121-0.65,0.242-0.988,0.361C1193.245,650.351,1192.886,650.471,1192.525,650.584"/>
						<path fill="#1C2531" d="M1194.592,649.862l-0.523-0.263c0.743-0.281,1.441-0.567,2.096-0.856l0.523,0.262
							C1196.033,649.295,1195.335,649.581,1194.592,649.862"/>
						<path fill="#1C2531" d="M1196.688,649.005l-0.523-0.262c0.522-0.232,1.017-0.467,1.482-0.704l0.523,0.263
							C1197.704,648.539,1197.21,648.773,1196.688,649.005"/>
						<path fill="#1C2531" d="M1198.17,648.302l-0.523-0.263c0.389-0.197,0.757-0.397,1.105-0.6l0.523,0.263
							C1198.927,647.904,1198.559,648.104,1198.17,648.302"/>
						<path fill="#1C2531" d="M1199.275,647.702l-0.523-0.263c0.3-0.174,0.585-0.35,0.855-0.526l0.523,0.263
							C1199.86,647.353,1199.575,647.528,1199.275,647.702"/>
						<path fill="#1C2531" d="M1200.131,647.176l-0.523-0.263c0.24-0.157,0.47-0.315,0.687-0.476l0.523,0.263
							C1200.601,646.859,1200.372,647.019,1200.131,647.176"/>
						<path fill="#1C2531" d="M1200.817,646.7l-0.523-0.263c0.099-0.073,0.196-0.146,0.29-0.22l0.523,0.263
							C1201.014,646.554,1200.917,646.627,1200.817,646.7"/>
					</g>
				</g>
				<g enable-background="new    ">
					<defs>
						<path id="SVGID_51_" enable-background="new    " d="M1197.668,606.402c0.175,0.087,0.35,0.175,0.523,0.262
							c-0.936-0.469-1.943-0.893-3.022-1.269c-3.525-1.242-7.474-1.862-11.846-1.862l-0.523-0.263c4.372,0,8.32,0.62,11.846,1.862
							C1195.725,605.509,1196.732,605.933,1197.668,606.402z"/>
					</defs>
					<clipPath id="SVGID_52_">
						<use xlink:href="#SVGID_51_"  overflow="visible"/>
					</clipPath>
					<g clip-path="url(#SVGID_52_)" enable-background="new    ">
						<path fill="#1C2531" d="M1183.323,603.533l-0.523-0.263c1.426,0,2.806,0.066,4.142,0.198l0.523,0.262
							C1186.129,603.599,1184.749,603.533,1183.323,603.533"/>
						<path fill="#1C2531" d="M1187.465,603.73l-0.523-0.262c2.76,0.272,5.328,0.827,7.704,1.664
							c0.985,0.344,1.912,0.727,2.778,1.148l0.523,0.263c-0.866-0.422-1.793-0.805-2.778-1.148
							C1192.793,604.559,1190.225,604.004,1187.465,603.73"/>
						<path fill="#1C2531" d="M1197.947,606.544l-0.523-0.263c0.082,0.04,0.164,0.08,0.244,0.121l0.523,0.262
							C1198.111,606.624,1198.029,606.584,1197.947,606.544"/>
					</g>
				</g>
				<g enable-background="new    ">
					<defs>
						<path id="SVGID_53_" enable-background="new    " d="M1166.833,654.524c-0.175-0.087-0.349-0.174-0.522-0.262
							c-4.404-2.208-7.771-5.285-10.087-9.231c-2.462-4.211-3.7-8.927-3.697-14.127c0.003-5.156,1.237-9.961,3.696-14.435
							c2.467-4.463,6.004-7.782,10.619-9.952c4.625-2.168,9.941-3.247,15.958-3.247l0.523,0.263c-6.017,0-11.333,1.079-15.958,3.247
							c-4.615,2.17-8.152,5.489-10.619,9.952c-2.459,4.473-3.693,9.277-3.696,14.434c-0.003,5.201,1.235,9.916,3.697,14.127
							C1159.063,649.24,1162.429,652.316,1166.833,654.524z"/>
					</defs>
					<clipPath id="SVGID_54_">
						<use xlink:href="#SVGID_53_"  overflow="visible"/>
					</clipPath>
					<g clip-path="url(#SVGID_54_)" enable-background="new    ">
						<path fill="#1C2531" d="M1166.834,654.525l-0.523-0.263c-4.404-2.208-7.771-5.285-10.087-9.231
							c-2.462-4.211-3.7-8.927-3.697-14.127c0.003-5.156,1.237-9.961,3.696-14.435c0.02-0.036,0.04-0.072,0.06-0.108l0.523,0.263
							c-0.02,0.036-0.04,0.072-0.06,0.108c-2.459,4.473-3.693,9.277-3.696,14.434c-0.003,5.201,1.235,9.916,3.697,14.127
							C1159.063,649.24,1162.43,652.317,1166.834,654.525"/>
						<path fill="#1C2531" d="M1156.806,616.624l-0.523-0.263c0.412-0.736,0.854-1.441,1.324-2.116l0.523,0.263
							C1157.659,615.182,1157.218,615.888,1156.806,616.624"/>
						<path fill="#1C2531" d="M1158.13,614.508l-0.523-0.263c0.359-0.515,0.736-1.011,1.13-1.489l0.523,0.263
							C1158.866,613.497,1158.489,613.993,1158.13,614.508"/>
						<path fill="#1C2531" d="M1159.26,613.019l-0.523-0.263c0.334-0.405,0.681-0.797,1.04-1.176l0.523,0.262
							C1159.94,612.222,1159.594,612.613,1159.26,613.019"/>
						<path fill="#1C2531" d="M1160.3,611.842l-0.523-0.262c0.324-0.344,0.66-0.676,1.005-0.998l0.523,0.263
							C1160.96,611.167,1160.625,611.499,1160.3,611.842"/>
						<path fill="#1C2531" d="M1161.305,610.845l-0.523-0.263c0.324-0.301,0.656-0.593,0.998-0.875l0.523,0.263
							C1161.961,610.252,1161.629,610.544,1161.305,610.845"/>
						<path fill="#1C2531" d="M1162.303,609.97l-0.523-0.263c0.329-0.271,0.666-0.535,1.012-0.789l0.523,0.263
							C1162.969,609.435,1162.632,609.697,1162.303,609.97"/>
						<path fill="#1C2531" d="M1163.314,609.181l-0.523-0.263c0.34-0.25,0.688-0.492,1.045-0.726l0.523,0.263
							C1164.003,608.688,1163.654,608.93,1163.314,609.181"/>
						<path fill="#1C2531" d="M1164.359,608.455l-0.523-0.263c0.357-0.233,0.723-0.459,1.096-0.676l0.523,0.263
							C1165.082,607.996,1164.717,608.222,1164.359,608.455"/>
						<path fill="#1C2531" d="M1165.455,607.779l-0.523-0.263c0.382-0.221,0.771-0.433,1.17-0.636l0.523,0.263
							C1166.227,607.347,1165.837,607.559,1165.455,607.779"/>
						<path fill="#1C2531" d="M1166.625,607.144l-0.523-0.263c0.243-0.124,0.49-0.245,0.74-0.363
							c0.196-0.092,0.395-0.182,0.594-0.27l0.523,0.262c-0.199,0.089-0.397,0.179-0.594,0.271
							C1167.115,606.898,1166.869,607.019,1166.625,607.144"/>
						<path fill="#1C2531" d="M1167.959,606.51l-0.523-0.262c0.525-0.233,1.061-0.453,1.604-0.659l0.523,0.263
							C1169.02,606.058,1168.484,606.277,1167.959,606.51"/>
						<path fill="#1C2531" d="M1169.563,605.852l-0.523-0.263c0.577-0.219,1.165-0.421,1.762-0.609l0.523,0.263
							C1170.729,605.43,1170.141,605.633,1169.563,605.852"/>
						<path fill="#1C2531" d="M1171.325,605.242l-0.523-0.263c0.648-0.203,1.309-0.389,1.98-0.556l0.524,0.263
							C1172.635,604.854,1171.975,605.039,1171.325,605.242"/>
						<path fill="#1C2531" d="M1173.307,604.687l-0.523-0.263c0.756-0.188,1.527-0.354,2.314-0.496l0.523,0.263
							C1174.834,604.332,1174.063,604.498,1173.307,604.687"/>
						<path fill="#1C2531" d="M1175.621,604.19l-0.523-0.263c0.932-0.168,1.885-0.305,2.859-0.408l0.523,0.263
							C1177.506,603.886,1176.553,604.021,1175.621,604.19"/>
						<path fill="#1C2531" d="M1178.48,603.782l-0.523-0.263c1.249-0.133,2.533-0.213,3.852-0.239l0.523,0.263
							C1181.014,603.569,1179.729,603.649,1178.48,603.782"/>
						<path fill="#1C2531" d="M1182.332,603.543l-0.523-0.263c0.328-0.006,0.659-0.01,0.991-0.01l0.523,0.263
							C1182.991,603.533,1182.66,603.536,1182.332,603.543"/>
					</g>
				</g>
				<g>
					<path fill="#1C2531" d="M1183.323,603.533c4.372,0,8.32,0.62,11.846,1.862c3.534,1.232,6.303,2.969,8.308,5.183
						c2.004,2.214,3.522,5.102,4.572,8.666l-7.214,1.735c-0.907-2.699-2.039-4.813-3.378-6.36c-1.349-1.539-3.272-2.772-5.772-3.699
						c-2.5-0.926-5.27-1.395-8.328-1.395c-3.652,0-6.81,0.495-9.48,1.467c-2.663,0.972-4.814,2.259-6.452,3.843
						c-1.639,1.592-2.907,3.338-3.817,5.246c-1.54,3.274-2.306,6.819-2.309,10.652c-0.003,4.725,0.921,8.666,2.771,11.852
						c1.852,3.176,4.549,5.534,8.092,7.081c3.552,1.539,7.312,2.313,11.296,2.313c3.462,0,6.846-0.585,10.146-1.755
						c3.293-1.169,5.794-2.411,7.504-3.743l0.006-9.861h-17.773l0.004-6.209l25.599-0.036l-0.012,19.652
						c-3.933,2.744-7.981,4.805-12.164,6.19c-4.175,1.386-8.465,2.079-12.855,2.079c-5.936,0-11.332-1.116-16.179-3.339
						c-4.847-2.231-8.515-5.452-10.985-9.664c-2.462-4.211-3.7-8.926-3.697-14.127c0.003-5.156,1.237-9.961,3.696-14.434
						c2.467-4.463,6.004-7.782,10.619-9.952C1171.99,604.612,1177.307,603.533,1183.323,603.533z"/>
				</g>
			</g>
		</g>
	</g>
	<g>
		<linearGradient id="SVGID_55_" gradientUnits="userSpaceOnUse" x1="687.2192" y1="697.9619" x2="715.7246" y2="697.9619">
			<stop  offset="0.1281" style="stop-color:#69A0C0"/>
			<stop  offset="1" style="stop-color:#0C2032"/>
		</linearGradient>
		<ellipse fill="url(#SVGID_55_)" cx="701.472" cy="697.962" rx="14.253" ry="12.873"/>
		<linearGradient id="SVGID_56_" gradientUnits="userSpaceOnUse" x1="735.4937" y1="697.9619" x2="763.9985" y2="697.9619">
			<stop  offset="0.1281" style="stop-color:#69A0C0"/>
			<stop  offset="1" style="stop-color:#0C2032"/>
		</linearGradient>
		<ellipse fill="url(#SVGID_56_)" cx="749.746" cy="697.962" rx="14.252" ry="12.873"/>
		<linearGradient id="SVGID_57_" gradientUnits="userSpaceOnUse" x1="783.7676" y1="697.9619" x2="812.2725" y2="697.9619">
			<stop  offset="0.1281" style="stop-color:#69A0C0"/>
			<stop  offset="1" style="stop-color:#0C2032"/>
		</linearGradient>
		<ellipse fill="url(#SVGID_57_)" cx="798.02" cy="697.962" rx="14.252" ry="12.873"/>
		<linearGradient id="SVGID_58_" gradientUnits="userSpaceOnUse" x1="832.0415" y1="697.9619" x2="860.5469" y2="697.9619">
			<stop  offset="0.1281" style="stop-color:#69A0C0"/>
			<stop  offset="1" style="stop-color:#0C2032"/>
		</linearGradient>
		<ellipse fill="url(#SVGID_58_)" cx="846.294" cy="697.962" rx="14.253" ry="12.873"/>
		<linearGradient id="SVGID_59_" gradientUnits="userSpaceOnUse" x1="880.3154" y1="697.9619" x2="908.8203" y2="697.9619">
			<stop  offset="0.1281" style="stop-color:#69A0C0"/>
			<stop  offset="1" style="stop-color:#0C2032"/>
		</linearGradient>
		<ellipse fill="url(#SVGID_59_)" cx="894.568" cy="697.962" rx="14.252" ry="12.873"/>
		<linearGradient id="SVGID_60_" gradientUnits="userSpaceOnUse" x1="928.5898" y1="697.9619" x2="957.0947" y2="697.9619">
			<stop  offset="0.1281" style="stop-color:#69A0C0"/>
			<stop  offset="1" style="stop-color:#0C2032"/>
		</linearGradient>
		<ellipse fill="url(#SVGID_60_)" cx="942.842" cy="697.962" rx="14.252" ry="12.873"/>
		<linearGradient id="SVGID_61_" gradientUnits="userSpaceOnUse" x1="976.8623" y1="697.9619" x2="1005.3682" y2="697.9619">
			<stop  offset="0.1281" style="stop-color:#69A0C0"/>
			<stop  offset="1" style="stop-color:#0C2032"/>
		</linearGradient>
		<ellipse fill="url(#SVGID_61_)" cx="991.115" cy="697.962" rx="14.253" ry="12.873"/>
		<linearGradient id="SVGID_62_" gradientUnits="userSpaceOnUse" x1="1025.1367" y1="697.9619" x2="1053.6416" y2="697.9619">
			<stop  offset="0.1281" style="stop-color:#69A0C0"/>
			<stop  offset="1" style="stop-color:#0C2032"/>
		</linearGradient>
		<ellipse fill="url(#SVGID_62_)" cx="1039.389" cy="697.962" rx="14.252" ry="12.873"/>
	</g>
	<g>
		<linearGradient id="SVGID_63_" gradientUnits="userSpaceOnUse" x1="594.7349" y1="356.3872" x2="862.2344" y2="356.3872">
			<stop  offset="0.1823" style="stop-color:#1966A4"/>
			<stop  offset="0.867" style="stop-color:#0C2032"/>
		</linearGradient>
		<polyline fill="url(#SVGID_63_)" points="858.9,455.888 862.234,431.554 594.735,256.887 594.735,284.388 		"/>
		<linearGradient id="SVGID_64_" gradientUnits="userSpaceOnUse" x1="594.7349" y1="329.8037" x2="862.2344" y2="329.8037">
			<stop  offset="0.1281" style="stop-color:#69A0C0"/>
			<stop  offset="1" style="stop-color:#0C2032"/>
		</linearGradient>
		<polyline fill="url(#SVGID_64_)" points="594.735,228.054 857.734,400.554 862.234,431.554 594.842,256.956 		"/>
		<polyline fill="#1E3951" points="857.734,400.554 1126.359,226.179 1125.734,255.679 862.234,431.763 		"/>
		<polygon fill="#0E1F32" points="862.234,431.138 859.734,455.888 1126.359,284.221 1125.273,255.986 		"/>
	</g>
	<rect x="1259.874" y="628.656" fill="#1C2531" width="90.745" height="11"/>
	<g>
		
			<linearGradient id="SVGID_65_" gradientUnits="userSpaceOnUse" x1="190.8936" y1="1118.0938" x2="190.8936" y2="1118.0938" gradientTransform="matrix(-0.0182 -0.9998 0.9998 -0.0182 261.2393 966.1068)">
			<stop  offset="0.1281" style="stop-color:#69A0C0"/>
			<stop  offset="1" style="stop-color:#0C2032"/>
		</linearGradient>
		<path fill="url(#SVGID_65_)" d="M1375.635,754.902"/>
		
			<linearGradient id="SVGID_66_" gradientUnits="userSpaceOnUse" x1="945.6318" y1="1134.1846" x2="945.6318" y2="1134.1846" gradientTransform="matrix(-0.0182 -0.9998 0.9998 -0.0182 261.2393 966.1068)">
			<stop  offset="0.1281" style="stop-color:#69A0C0"/>
			<stop  offset="1" style="stop-color:#0C2032"/>
		</linearGradient>
		<path fill="url(#SVGID_66_)" d="M1377.986,0.022"/>
		<line fill="#1E3951" x1="1324.755" y1="-0.002" x2="1371.979" y2="0.139"/>
		<path fill="#0E1F32" d="M1372.017,0.035"/>
	</g>
	<g>
		<linearGradient id="SVGID_67_" gradientUnits="userSpaceOnUse" x1="596.4224" y1="282.9697" x2="863.9219" y2="282.9697">
			<stop  offset="0.1823" style="stop-color:#1966A4"/>
			<stop  offset="0.867" style="stop-color:#0C2032"/>
		</linearGradient>
		<polyline fill="url(#SVGID_67_)" points="860.588,382.47 863.922,358.136 596.422,183.469 596.422,210.97 		"/>
		<linearGradient id="SVGID_68_" gradientUnits="userSpaceOnUse" x1="596.4224" y1="256.3857" x2="863.9219" y2="256.3857">
			<stop  offset="0.1281" style="stop-color:#69A0C0"/>
			<stop  offset="1" style="stop-color:#0C2032"/>
		</linearGradient>
		<polyline fill="url(#SVGID_68_)" points="596.422,154.636 859.422,327.136 863.922,358.136 596.529,183.539 		"/>
		<polyline fill="#1E3951" points="859.422,327.136 1128.047,152.761 1127.422,182.261 863.922,358.345 		"/>
		<polygon fill="#0E1F32" points="863.922,357.72 861.422,382.47 1128.047,210.803 1126.961,182.569 		"/>
	</g>
</g>
</svg>
